<?xml version="1.0" encoding="UTF-8"?>
<svg width="275px" height="169px" viewBox="0 0 275 169" version="1.1" xmlns="http://www.w3.org/2000/svg" xmlns:xlink="http://www.w3.org/1999/xlink">
    <!-- Generator: Sketch 43.1 (39012) - http://www.bohemiancoding.com/sketch -->
    <title>Artboard</title>
    <desc>Created with Sketch.</desc>
    <defs></defs>
    <g id="Page-1" stroke="none" stroke-width="1" fill="none" fill-rule="evenodd">
        <g id="Artboard" stroke="#83C9E4" fill="#FFFFFF">
            <path d="M139.184068,151 C174.684068,151 170,131.1685 170,81.5 C170,36.1164277 155.330742,4.62527148 147.5,9.07225639 C139.669258,13.5192413 150.918032,115.5 139.102099,115.5 C127.286167,115.5 140.251242,13.9322213 132.564581,9.07225639 C124.877919,4.21229145 108.184068,29.6148433 108.184068,79.3999551 C108.184068,132.938727 103.684068,151 139.184068,151 Z" id="Oval-16-Copy-2" stroke-width="4"></path>
            <path d="M88.1840677,154 C52.6840677,154 57.1840677,135.938727 57.1840677,82.3999551 C57.1840677,28.8611828 54.1840677,10.7999102 88.1840677,10.7999102 C122.184068,10.7999102 119,34.8315004 119,84.5 C119,134.1685 123.684068,154 88.1840677,154 Z M88.1300408,117.807015 C100.231299,117.807015 98.6345915,107.447138 98.6345915,81.5005604 C98.6345915,55.5539832 99.7199781,43 88.1300408,43 C76.5401036,43 77.5627451,52.435119 77.5627451,80.4035074 C77.5627451,108.371896 76.0287828,117.807015 88.1300408,117.807015 Z" id="Combined-Shape" stroke-width="4"></path>
            <path d="M44,154 C76.96567,154 71.1108587,144 71.1108587,119 C71.1108587,116.465833 39.5,147 39.5,98.5 C39.5,50 71.1126342,83.7257614 71.1108587,82 C71.0846238,56.5 76.3920587,43 44,43 C10,43 13,57 13,98.5 C13,140 8.5,154 44,154 Z" id="Oval-16" stroke-width="5"></path>
            <path d="M195.706827,154 C230.418501,154 225.178643,135.088049 224.253594,92.615425 C224.182478,89.3502208 181.51809,168.79991 181.5,82.3999551 C181.48191,-4 224.153349,77.7641067 224.180973,75.5386218 C224.737468,30.7061166 229.814509,10.7999102 195.706827,10.7999102 C159.90604,10.7999102 163.064933,28.8611828 163.064933,82.3999551 C163.064933,135.938727 158.326593,154 195.706827,154 Z" id="Oval-16-Copy-4" stroke-width="4"></path>
            <path d="M241,96.5 C251.5,96.5 240.021596,154.471213 248.260798,154.471213 C273,154.471213 268.5,145.5 268.5,101.5 C268.5,57.5 271.416905,49.5 249.177703,44 C241.916905,42 239.279232,43.6752369 237,43 C227.55876,40.2029734 239.347885,14 209.948281,14 C209.948281,14 210.068528,67.8383874 209.948281,80.8555672 C209.893198,86.8184838 210,93.6697342 210,101.5 C210,141.292134 209.948281,154.471213 234.5,154.471213 C240.5,154.471213 230.5,96.5 241,96.5 Z" id="Oval-16" stroke-width="5"></path>
        </g>
    </g>
</svg>