<?xml version="1.0" encoding="UTF-8"?>
<svg width="275px" height="169px" viewBox="0 0 275 169" version="1.1" xmlns="http://www.w3.org/2000/svg" xmlns:xlink="http://www.w3.org/1999/xlink">
    <!-- Generator: Sketch 43.2 (39069) - http://www.bohemiancoding.com/sketch -->
    <title>Artboard Copy</title>
    <desc>Created with Sketch.</desc>
    <defs></defs>
    <g id="Page-1" stroke="none" stroke-width="1" fill="none" fill-rule="evenodd">
        <g id="Artboard-Copy" stroke="#83C9E4" fill="#FFFFFF">
            <path d="M135.184068,151.516183 C170.684068,151.516183 166,131.684683 166,82.0161832 C166,36.6326109 151.330742,5.1414547 143.5,9.58843961 C135.669258,14.0354245 146.918032,116.016183 135.102099,116.016183 C123.286167,116.016183 136.251242,14.4484046 128.564581,9.58843961 C120.877919,4.72847467 104.184068,30.1310265 104.184068,79.9161383 C104.184068,133.454911 99.6840677,151.516183 135.184068,151.516183 Z" id="Oval-16-Copy-2" stroke-width="4"></path>
            <path d="M84.1840677,154.20009 C48.6840677,154.20009 53.1840677,136.138817 53.1840677,82.6000449 C53.1840677,29.0612726 50.1840677,11 84.1840677,11 C118.184068,11 115,35.0315902 115,84.7000898 C115,134.368589 119.684068,154.20009 84.1840677,154.20009 Z M84.1300408,118.007105 C96.2312989,118.007105 94.6345915,107.647227 94.6345915,81.7006501 C94.6345915,55.7540729 95.7199781,43.2000898 84.1300408,43.2000898 C72.5401036,43.2000898 73.5627451,52.6352087 73.5627451,80.6035971 C73.5627451,108.571986 72.0287828,118.007105 84.1300408,118.007105 Z" id="Combined-Shape" stroke-width="4"></path>
            <path d="M40.1840677,154 C73.1497377,154 67.2949264,144 67.2949264,119 C67.2949264,116.465833 35.6840677,147 35.6840677,98.5 C35.6840677,50 67.2967019,83.7257614 67.2949264,82 C67.2686915,56.5 72.5761264,43 40.1840677,43 C6.18406767,43 9.18406767,57 9.18406767,98.5 C9.18406767,140 4.68406767,154 40.1840677,154 Z" id="Oval-16" stroke-width="5"></path>
            <path d="M191.835711,154.20009 C226.547385,154.20009 221.307527,135.288138 220.382478,92.8155147 C220.311362,89.5503106 177.646974,169 177.628884,82.6000449 C177.610794,-3.79991024 220.282233,77.9641964 220.309857,75.7387116 C220.866352,30.9062063 225.943393,11 191.835711,11 C156.034924,11 159.193817,29.0612726 159.193817,82.6000449 C159.193817,136.138817 154.455477,154.20009 191.835711,154.20009 Z" id="Oval-16-Copy-4" stroke-width="4"></path>
            <path d="M237.0675,96.5 C247.5675,96.5 236.089096,154.471213 244.328298,154.471213 C269.0675,154.471213 264.5675,131.5 264.5675,101.5 C264.5675,71.5 266.0675,57 258.5675,50.5 C251.0675,44 232.846732,45.1752369 230.5675,44.5 C221.12626,41.7029734 235.415385,14 206.015781,14 C206.015781,14 206.136028,67.8383874 206.015781,80.8555672 C205.960698,86.8184838 206.0675,93.6697342 206.0675,101.5 C206.0675,141.292134 206.015781,154.471213 230.5675,154.471213 C236.5675,154.471213 226.5675,96.5 237.0675,96.5 Z" id="Oval-16" stroke-width="5"></path>
        </g>
    </g>
</svg>