<?xml version="1.0" encoding="UTF-8"?>
<svg width="500px" height="400px" viewBox="0 0 500 400" version="1.1" xmlns="http://www.w3.org/2000/svg" xmlns:xlink="http://www.w3.org/1999/xlink">
    <!-- Generator: Sketch 43.2 (39069) - http://www.bohemiancoding.com/sketch -->
    <title>FreshPrinceofBelair</title>
    <desc>Created with Sketch.</desc>
    <defs>
        <polygon id="path-1" points="53.5 298 442 298 480.5 408 13 408"></polygon>
        <path d="M468,21 L524,21 L524,230 L361,230 L361,52.5 C361,52.5 396,21 468,21 Z" id="path-2"></path>
        <rect id="path-3" x="361" y="53" width="163" height="209"></rect>
        <rect id="path-4" x="375" y="67" width="18" height="27.7724292"></rect>
        <rect id="path-5" x="375" y="97.6454391" width="18" height="27.7724292"></rect>
        <rect id="path-6" x="398" y="67" width="18" height="27.7724292"></rect>
        <rect id="path-7" x="398" y="97.6454391" width="18" height="27.7724292"></rect>
        <rect id="path-8" x="375" y="129.248548" width="18" height="27.7724292"></rect>
        <rect id="path-9" x="375" y="159.893987" width="18" height="27.7724292"></rect>
        <rect id="path-10" x="398" y="129.248548" width="18" height="27.7724292"></rect>
        <rect id="path-11" x="398" y="159.893987" width="18" height="27.7724292"></rect>
        <rect id="path-12" x="375" y="190.539427" width="18" height="27.7724292"></rect>
        <rect id="path-13" x="375" y="221.184866" width="18" height="27.7724292"></rect>
        <rect id="path-14" x="398" y="190.539427" width="18" height="27.7724292"></rect>
        <rect id="path-15" x="398" y="221.184866" width="18" height="27.7724292"></rect>
        <rect id="path-16" x="431" y="67" width="18" height="27.7724292"></rect>
        <rect id="path-17" x="431" y="97.6454391" width="18" height="27.7724292"></rect>
        <rect id="path-18" x="454" y="67" width="18" height="27.7724292"></rect>
        <rect id="path-19" x="454" y="97.6454391" width="18" height="27.7724292"></rect>
        <rect id="path-20" x="431" y="129.248548" width="18" height="27.7724292"></rect>
        <rect id="path-21" x="431" y="159.893987" width="18" height="27.7724292"></rect>
        <rect id="path-22" x="454" y="129.248548" width="18" height="27.7724292"></rect>
        <rect id="path-23" x="454" y="159.893987" width="18" height="27.7724292"></rect>
        <rect id="path-24" x="431" y="190.539427" width="18" height="27.7724292"></rect>
        <rect id="path-25" x="431" y="221.184866" width="18" height="27.7724292"></rect>
        <rect id="path-26" x="454" y="190.539427" width="18" height="27.7724292"></rect>
        <rect id="path-27" x="454" y="221.184866" width="18" height="27.7724292"></rect>
        <rect id="path-28" x="487" y="67" width="18" height="27.7724292"></rect>
        <rect id="path-29" x="487" y="97.6454391" width="18" height="27.7724292"></rect>
        <rect id="path-30" x="487" y="129.248548" width="18" height="27.7724292"></rect>
        <rect id="path-31" x="487" y="159.893987" width="18" height="27.7724292"></rect>
        <rect id="path-32" x="487" y="190.539427" width="18" height="27.7724292"></rect>
        <rect id="path-33" x="487" y="221.184866" width="18" height="27.7724292"></rect>
        <path d="M406,344.99572 L406,363.994949 C406,367.311447 403.309397,370 399.997748,370 L119.002252,370 C115.6873,370 113,367.304389 113,364.00394 L113,345.033159 C113,345.033159 210.579163,334.006251 259.5,334 C308.420837,333.993749 406,344.99572 406,344.99572 Z" id="path-34"></path>
        <path d="M113,342.997152 C113,341.341871 114.338734,340 115.995363,340 L403.004637,340 C404.65893,340 406,341.341623 406,342.997152 L406,346 C406,349.313708 403.309397,352 399.997748,352 L119.002252,352 C115.6873,352 113,349.306966 113,346 L113,342.997152 Z" id="path-35"></path>
        <path d="M113,319.995103 C113,312.818106 118.824548,307 126.004301,307 L247.995699,307 C255.177776,307 261,312.823774 261,319.995103 L261,334.004817 C261,337.315865 258.304844,340 254.991827,340 L119.008173,340 C115.689951,340 113,337.313463 113,334.004817 L113,319.995103 Z" id="path-36"></path>
        <path d="M19,72.9951032 C19,65.8181059 24.8245475,60 32.0043007,60 L153.995699,60 C161.177776,60 167,65.8237744 167,72.9951032 L167,87.0048168 C167,90.3158651 164.304844,93 160.991827,93 L25.008173,93 C21.6899507,93 19,90.3134634 19,87.0048168 L19,72.9951032 Z" id="path-37"></path>
        <rect id="path-38" x="228" y="36" width="67" height="99"></rect>
    </defs>
    <g id="Page-1" stroke="none" stroke-width="1" fill="none" fill-rule="evenodd">
        <g id="FreshPrinceofBelair">
            <rect id="Rectangle-54" fill="#AA947E" x="0" y="218" width="500" height="182"></rect>
            <g id="Rectangle-53">
                <use fill="#EDD7C4" fill-rule="evenodd" xlink:href="#path-1"></use>
                <path stroke="#A69388" stroke-width="5" d="M55.2436094,300.5 L440.226297,300.5 L476.976297,405.5 L16.5845185,405.5 L55.2436094,300.5 Z"></path>
            </g>
            <polygon id="Rectangle-53" fill="#715F57" points="72.825 313.5 422.475 313.5 457.125 412.5 36.375 412.5"></polygon>
            <rect id="Rectangle-51" fill="#EED8C4" x="210" y="-20" width="305" height="282"></rect>
            <rect id="Rectangle-51" fill="#D5C4B6" x="212.974143" y="5" width="289.025857" height="12"></rect>
            <rect id="Rectangle-51" fill="#BEAFA1" x="212.974143" y="9" width="289.025857" height="4"></rect>
            <polygon id="Path-96" fill="#DBB798" points="215.212679 -5 217 237.5 -1.5 238.5 -0.606339468 -6"></polygon>
            <rect id="Path" fill="#F0E8BC" x="123" y="0" width="62" height="136"></rect>
            <rect id="Path" fill="#C1B2A4" x="123" y="80" width="62" height="56"></rect>
            <rect id="Path" fill="#78BCA8" x="149" y="0" width="36" height="80"></rect>
            <path d="M175,136 L139,136 C139,136 151.072658,87.5 157,87.5 C162.927342,87.5 175,136 175,136 Z" id="Path" fill="#F5C492"></path>
            <path d="M46,146.364861 C46,146.364861 69,134.260619 97.5,163 C126,191.739381 149,237.577879 149,237.577879 L102,237.577879 L46,237.577879 L46,146.364861 Z" id="Rectangle" fill="#C1B2A4"></path>
            <path d="M48,48.5 C48,48.5 99.0277467,85.7454648 120.5,109 C141.972253,132.254535 177,187.5 177,187.5 L187,188 C187,188 150.967116,128.906723 128.5,104.5 C106.032884,80.0932768 48,37 48,37 L48,48.5 Z" id="Path-95" fill="#7E6049"></path>
            <path d="M48,42.5 C48,42.5 99.0277467,79.7454648 120.5,103 C141.972253,126.254535 181.5,187.5 181.5,187.5 L191.5,188 C191.5,188 150.967116,122.906723 128.5,98.5 C106.032884,74.0932768 48,31 48,31 L48,42.5 Z" id="Path-95" fill="#4A382A"></path>
            <path d="M28,112.5 C28,112.5 79.0277467,149.745465 100.5,173 C121.972253,196.254535 161.5,257.5 161.5,257.5 L171.5,258 C171.5,258 130.967116,192.906723 108.5,168.5 C86.0328839,144.093277 28,101 28,101 L28,112.5 Z" id="Path-95" fill="#F5E8E0"></path>
            <rect id="Rectangle-47" fill="#7E6049" x="48" y="52" width="5" height="56" rx="2.5"></rect>
            <rect id="Rectangle-47" fill="#7E6049" x="58" y="62" width="5" height="56" rx="2.5"></rect>
            <rect id="Rectangle-47" fill="#7E6049" x="68" y="72" width="5" height="56" rx="2.5"></rect>
            <rect id="Rectangle-47" fill="#7E6049" x="78" y="82" width="5" height="56" rx="2.5"></rect>
            <rect id="Rectangle-47" fill="#7E6049" x="90" y="90" width="5" height="56" rx="2.5"></rect>
            <rect id="Rectangle-47" fill="#7E6049" x="100" y="98" width="5" height="56" rx="2.5"></rect>
            <rect id="Rectangle-47" fill="#7E6049" x="110" y="109" width="5" height="56" rx="2.5"></rect>
            <rect id="Rectangle-47" fill="#7E6049" x="120" y="122" width="5" height="56" rx="2.5"></rect>
            <rect id="Rectangle-47" fill="#7E6049" x="130" y="131" width="5" height="56" rx="2.5"></rect>
            <rect id="Rectangle-47" fill="#7E6049" x="138.061123" y="140.176385" width="4.00759354" height="52.7770695" rx="2.00379677"></rect>
            <rect id="Rectangle-47" fill="#7E6049" x="146.061123" y="148.176385" width="4.00759354" height="52.7770695" rx="2.00379677"></rect>
            <rect id="Rectangle-47" fill="#7E6049" x="154.572513" y="160.932877" width="4.14502673" height="46.4242993" rx="2.07251336"></rect>
            <rect id="Rectangle-47" fill="#7E6049" x="162.862567" y="173.222931" width="4.14502673" height="46.4242993" rx="2.07251336"></rect>
            <rect id="Rectangle-48" fill="#C4A69C" x="24" y="0" width="22" height="236"></rect>
            <rect id="Rectangle-48" fill="#8D7665" x="15" y="0" width="11" height="236"></rect>
            <polygon id="Path-99" fill="#F4E7E0" points="83 145 94 146 94 157.5"></polygon>
            <polygon id="Path-99" fill="#F4E7E0" points="93 155 104 156 104 167.5"></polygon>
            <polygon id="Path-99" fill="#F4E7E0" points="103 164 114 165 114 176.5"></polygon>
            <polygon id="Path-99" fill="#F4E7E0" points="113 176 124 177 124 188.5"></polygon>
            <polygon id="Path-99" fill="#F4E7E0" points="120 185 131 186 131 197.5"></polygon>
            <polygon id="Path-99" fill="#F4E7E0" points="127 194 138 195 138 206.5"></polygon>
            <polygon id="Path-99" fill="#F4E7E0" points="134 205 145 206 145 217.5"></polygon>
            <rect id="Rectangle-3" fill="#725641" x="178" y="184" width="5" height="48" rx="2.5"></rect>
            <rect id="Rectangle-3" fill="#7E6049" x="167" y="184" width="27" height="7" rx="3.5"></rect>
            <path d="M64.926298,177.814514 C76.1765036,170.424485 84,154.033503 84,135 C84,109.042617 69.4492544,88 51.5,88 C33.5507456,88 19,109.042617 19,135 C19,153.262719 25.6326281,170.867806 36.724082,176.87285 C38.3949961,177.777502 37.3760007,202.548324 40.5,203 C42.4758267,203.28567 56.2441072,207.903709 61,203 C65.7558928,198.096291 63.8572922,178.516722 64.926298,177.814514 Z" id="Oval-21" stroke="#4C6644" stroke-width="4" fill="#668060"></path>
            <path d="M64.926298,177.814514 C76.1765036,170.424485 56,154.033503 56,135 C56,109.042617 69.4492544,88.5 51.5,88.5 C33.5507456,88.5 19,109.042617 19,135 C19,153.262719 25.6326281,170.867806 36.724082,176.87285 C38.3949961,177.777502 37.3760007,202.548324 40.5,203 C42.4758267,203.28567 56.2441072,207.903709 61,203 C65.7558928,198.096291 63.8572922,178.516722 64.926298,177.814514 Z" id="Oval-21" stroke="#4C6644" stroke-width="4" fill="#5B6D56"></path>
            <path d="M51,252 C71.5,252 76,226.927946 76,196 C76,196 63.5,196 51,196 C38.5,196 26,196 26,196 C26,226.927946 30.5,252 51,252 Z" id="Oval-21" stroke="#FFECEC" stroke-width="5" fill="#EDE2E2"></path>
            <path d="M51,248 C51,248 42,232.296267 42,223.5 L42,199 L28,199 C28,229.927946 30.5,248 51,248 Z" id="Oval-21" fill="#BAB0B0"></path>
            <g id="Rectangle-49">
                <use fill="#D3C8C8" fill-rule="evenodd" xlink:href="#path-2"></use>
                <path stroke="#E6E0E0" stroke-width="7" d="M520.5,24.5 L520.5,226.5 L364.5,226.5 L364.5,54.141193 C364.597941,54.0631797 364.699665,53.9827514 364.805175,53.8999581 C366.109356,52.8765704 367.688128,51.7282451 369.542333,50.4855338 C374.886052,46.9041046 381.34253,43.3108351 388.919394,39.9492688 C410.668371,30.3000749 436.998869,24.5 468,24.5 L520.5,24.5 Z"></path>
            </g>
            <g id="Rectangle-49">
                <use fill="#E1CFC0" fill-rule="evenodd" xlink:href="#path-3"></use>
                <rect stroke="#E6E0E0" stroke-width="7" x="364.5" y="56.5" width="156" height="202"></rect>
            </g>
            <g id="Rectangle-50">
                <use fill="#D3C8C8" fill-rule="evenodd" xlink:href="#path-4"></use>
                <rect stroke="#E6E0E0" stroke-width="3" x="376.5" y="68.5" width="15" height="24.7724292"></rect>
            </g>
            <g id="Rectangle-50">
                <use fill="#D3C8C8" fill-rule="evenodd" xlink:href="#path-5"></use>
                <rect stroke="#E6E0E0" stroke-width="3" x="376.5" y="99.1454391" width="15" height="24.7724292"></rect>
            </g>
            <g id="Rectangle-50">
                <use fill="#D3C8C8" fill-rule="evenodd" xlink:href="#path-6"></use>
                <rect stroke="#E6E0E0" stroke-width="3" x="399.5" y="68.5" width="15" height="24.7724292"></rect>
            </g>
            <g id="Rectangle-50">
                <use fill="#D3C8C8" fill-rule="evenodd" xlink:href="#path-7"></use>
                <rect stroke="#E6E0E0" stroke-width="3" x="399.5" y="99.1454391" width="15" height="24.7724292"></rect>
            </g>
            <g id="Rectangle-50">
                <use fill="#D3C8C8" fill-rule="evenodd" xlink:href="#path-8"></use>
                <rect stroke="#E6E0E0" stroke-width="3" x="376.5" y="130.748548" width="15" height="24.7724292"></rect>
            </g>
            <g id="Rectangle-50">
                <use fill="#D3C8C8" fill-rule="evenodd" xlink:href="#path-9"></use>
                <rect stroke="#E6E0E0" stroke-width="3" x="376.5" y="161.393987" width="15" height="24.7724292"></rect>
            </g>
            <g id="Rectangle-50">
                <use fill="#D3C8C8" fill-rule="evenodd" xlink:href="#path-10"></use>
                <rect stroke="#E6E0E0" stroke-width="3" x="399.5" y="130.748548" width="15" height="24.7724292"></rect>
            </g>
            <g id="Rectangle-50">
                <use fill="#D3C8C8" fill-rule="evenodd" xlink:href="#path-11"></use>
                <rect stroke="#E6E0E0" stroke-width="3" x="399.5" y="161.393987" width="15" height="24.7724292"></rect>
            </g>
            <g id="Rectangle-50">
                <use fill="#D3C8C8" fill-rule="evenodd" xlink:href="#path-12"></use>
                <rect stroke="#E6E0E0" stroke-width="3" x="376.5" y="192.039427" width="15" height="24.7724292"></rect>
            </g>
            <g id="Rectangle-50">
                <use fill="#D3C8C8" fill-rule="evenodd" xlink:href="#path-13"></use>
                <rect stroke="#E6E0E0" stroke-width="3" x="376.5" y="222.684866" width="15" height="24.7724292"></rect>
            </g>
            <g id="Rectangle-50">
                <use fill="#D3C8C8" fill-rule="evenodd" xlink:href="#path-14"></use>
                <rect stroke="#E6E0E0" stroke-width="3" x="399.5" y="192.039427" width="15" height="24.7724292"></rect>
            </g>
            <g id="Rectangle-50">
                <use fill="#D3C8C8" fill-rule="evenodd" xlink:href="#path-15"></use>
                <rect stroke="#E6E0E0" stroke-width="3" x="399.5" y="222.684866" width="15" height="24.7724292"></rect>
            </g>
            <g id="Rectangle-50">
                <use fill="#D3C8C8" fill-rule="evenodd" xlink:href="#path-16"></use>
                <rect stroke="#E6E0E0" stroke-width="3" x="432.5" y="68.5" width="15" height="24.7724292"></rect>
            </g>
            <g id="Rectangle-50">
                <use fill="#D3C8C8" fill-rule="evenodd" xlink:href="#path-17"></use>
                <rect stroke="#E6E0E0" stroke-width="3" x="432.5" y="99.1454391" width="15" height="24.7724292"></rect>
            </g>
            <g id="Rectangle-50">
                <use fill="#D3C8C8" fill-rule="evenodd" xlink:href="#path-18"></use>
                <rect stroke="#E6E0E0" stroke-width="3" x="455.5" y="68.5" width="15" height="24.7724292"></rect>
            </g>
            <g id="Rectangle-50">
                <use fill="#D3C8C8" fill-rule="evenodd" xlink:href="#path-19"></use>
                <rect stroke="#E6E0E0" stroke-width="3" x="455.5" y="99.1454391" width="15" height="24.7724292"></rect>
            </g>
            <g id="Rectangle-50">
                <use fill="#D3C8C8" fill-rule="evenodd" xlink:href="#path-20"></use>
                <rect stroke="#E6E0E0" stroke-width="3" x="432.5" y="130.748548" width="15" height="24.7724292"></rect>
            </g>
            <g id="Rectangle-50">
                <use fill="#D3C8C8" fill-rule="evenodd" xlink:href="#path-21"></use>
                <rect stroke="#E6E0E0" stroke-width="3" x="432.5" y="161.393987" width="15" height="24.7724292"></rect>
            </g>
            <g id="Rectangle-50">
                <use fill="#D3C8C8" fill-rule="evenodd" xlink:href="#path-22"></use>
                <rect stroke="#E6E0E0" stroke-width="3" x="455.5" y="130.748548" width="15" height="24.7724292"></rect>
            </g>
            <g id="Rectangle-50">
                <use fill="#D3C8C8" fill-rule="evenodd" xlink:href="#path-23"></use>
                <rect stroke="#E6E0E0" stroke-width="3" x="455.5" y="161.393987" width="15" height="24.7724292"></rect>
            </g>
            <g id="Rectangle-50">
                <use fill="#D3C8C8" fill-rule="evenodd" xlink:href="#path-24"></use>
                <rect stroke="#E6E0E0" stroke-width="3" x="432.5" y="192.039427" width="15" height="24.7724292"></rect>
            </g>
            <g id="Rectangle-50">
                <use fill="#D3C8C8" fill-rule="evenodd" xlink:href="#path-25"></use>
                <rect stroke="#E6E0E0" stroke-width="3" x="432.5" y="222.684866" width="15" height="24.7724292"></rect>
            </g>
            <g id="Rectangle-50">
                <use fill="#D3C8C8" fill-rule="evenodd" xlink:href="#path-26"></use>
                <rect stroke="#E6E0E0" stroke-width="3" x="455.5" y="192.039427" width="15" height="24.7724292"></rect>
            </g>
            <g id="Rectangle-50">
                <use fill="#D3C8C8" fill-rule="evenodd" xlink:href="#path-27"></use>
                <rect stroke="#E6E0E0" stroke-width="3" x="455.5" y="222.684866" width="15" height="24.7724292"></rect>
            </g>
            <g id="Rectangle-50">
                <use fill="#D3C8C8" fill-rule="evenodd" xlink:href="#path-28"></use>
                <rect stroke="#E6E0E0" stroke-width="3" x="488.5" y="68.5" width="15" height="24.7724292"></rect>
            </g>
            <g id="Rectangle-50">
                <use fill="#D3C8C8" fill-rule="evenodd" xlink:href="#path-29"></use>
                <rect stroke="#E6E0E0" stroke-width="3" x="488.5" y="99.1454391" width="15" height="24.7724292"></rect>
            </g>
            <g id="Rectangle-50">
                <use fill="#D3C8C8" fill-rule="evenodd" xlink:href="#path-30"></use>
                <rect stroke="#E6E0E0" stroke-width="3" x="488.5" y="130.748548" width="15" height="24.7724292"></rect>
            </g>
            <g id="Rectangle-50">
                <use fill="#D3C8C8" fill-rule="evenodd" xlink:href="#path-31"></use>
                <rect stroke="#E6E0E0" stroke-width="3" x="488.5" y="161.393987" width="15" height="24.7724292"></rect>
            </g>
            <g id="Rectangle-50">
                <use fill="#D3C8C8" fill-rule="evenodd" xlink:href="#path-32"></use>
                <rect stroke="#E6E0E0" stroke-width="3" x="488.5" y="192.039427" width="15" height="24.7724292"></rect>
            </g>
            <g id="Rectangle-50">
                <use fill="#D3C8C8" fill-rule="evenodd" xlink:href="#path-33"></use>
                <rect stroke="#E6E0E0" stroke-width="3" x="488.5" y="222.684866" width="15" height="24.7724292"></rect>
            </g>
            <g id="Group-2" transform="translate(382.000000, 76.000000)" stroke-linecap="round" stroke-width="3" stroke="#E1D9D9">
                <polyline id="Path-97" points="5.5 0 5.5 13.5 0.5 13.5"></polyline>
                <polyline id="Path-97" points="29.5 0 29.5 13.5 24.5 13.5"></polyline>
                <polyline id="Path-97" points="5.5 30 5.5 43.5 0.5 43.5"></polyline>
                <polyline id="Path-97" points="29.5 30 29.5 43.5 24.5 43.5"></polyline>
                <polyline id="Path-97" points="5.5 63 5.5 76.5 0.5 76.5"></polyline>
                <polyline id="Path-97" points="29.5 63 29.5 76.5 24.5 76.5"></polyline>
                <polyline id="Path-97" points="5.5 0 5.5 13.5 0.5 13.5"></polyline>
                <polyline id="Path-97" points="29.5 0 29.5 13.5 24.5 13.5"></polyline>
                <polyline id="Path-97" points="5.5 93 5.5 106.5 0.5 106.5"></polyline>
                <polyline id="Path-97" points="29.5 93 29.5 106.5 24.5 106.5"></polyline>
                <polyline id="Path-97" points="5.5 124 5.5 137.5 0.5 137.5"></polyline>
                <polyline id="Path-97" points="29.5 124 29.5 137.5 24.5 137.5"></polyline>
                <polyline id="Path-97" points="5.5 154 5.5 167.5 0.5 167.5"></polyline>
                <polyline id="Path-97" points="29.5 154 29.5 167.5 24.5 167.5"></polyline>
                <polyline id="Path-97" transform="translate(56.000000, 6.750000) scale(-1, 1) translate(-56.000000, -6.750000) " points="58.5 0 58.5 13.5 53.5 13.5"></polyline>
                <polyline id="Path-97" transform="translate(80.000000, 6.750000) scale(-1, 1) translate(-80.000000, -6.750000) " points="82.5 0 82.5 13.5 77.5 13.5"></polyline>
                <polyline id="Path-97" transform="translate(56.000000, 36.750000) scale(-1, 1) translate(-56.000000, -36.750000) " points="58.5 30 58.5 43.5 53.5 43.5"></polyline>
                <polyline id="Path-97" transform="translate(80.000000, 36.750000) scale(-1, 1) translate(-80.000000, -36.750000) " points="82.5 30 82.5 43.5 77.5 43.5"></polyline>
                <polyline id="Path-97" transform="translate(56.000000, 69.750000) scale(-1, 1) translate(-56.000000, -69.750000) " points="58.5 63 58.5 76.5 53.5 76.5"></polyline>
                <polyline id="Path-97" transform="translate(80.000000, 69.750000) scale(-1, 1) translate(-80.000000, -69.750000) " points="82.5 63 82.5 76.5 77.5 76.5"></polyline>
                <polyline id="Path-97" transform="translate(56.000000, 6.750000) scale(-1, 1) translate(-56.000000, -6.750000) " points="58.5 0 58.5 13.5 53.5 13.5"></polyline>
                <polyline id="Path-97" transform="translate(80.000000, 6.750000) scale(-1, 1) translate(-80.000000, -6.750000) " points="82.5 0 82.5 13.5 77.5 13.5"></polyline>
                <polyline id="Path-97" transform="translate(56.000000, 99.750000) scale(-1, 1) translate(-56.000000, -99.750000) " points="58.5 93 58.5 106.5 53.5 106.5"></polyline>
                <polyline id="Path-97" transform="translate(80.000000, 99.750000) scale(-1, 1) translate(-80.000000, -99.750000) " points="82.5 93 82.5 106.5 77.5 106.5"></polyline>
                <polyline id="Path-97" transform="translate(56.000000, 130.750000) scale(-1, 1) translate(-56.000000, -130.750000) " points="58.5 124 58.5 137.5 53.5 137.5"></polyline>
                <polyline id="Path-97" transform="translate(80.000000, 130.750000) scale(-1, 1) translate(-80.000000, -130.750000) " points="82.5 124 82.5 137.5 77.5 137.5"></polyline>
                <polyline id="Path-97" transform="translate(56.000000, 160.750000) scale(-1, 1) translate(-56.000000, -160.750000) " points="58.5 154 58.5 167.5 53.5 167.5"></polyline>
                <polyline id="Path-97" transform="translate(80.000000, 160.750000) scale(-1, 1) translate(-80.000000, -160.750000) " points="82.5 154 82.5 167.5 77.5 167.5"></polyline>
            </g>
            <path d="M480,75.5 L480,257.500687" id="Path-98" stroke="#FFEFEF" stroke-width="5" stroke-linecap="round"></path>
            <path d="M424,75.5 L424,257.500687" id="Path-98" stroke="#FFEFEF" stroke-width="4" stroke-linecap="round"></path>
            <path d="M117.734886,301.084953 C115.119881,294.410618 118.824548,289 126.004301,289 L247.995699,289 C255.177776,289 261,294.825932 261,301.997305 L261,329.009901 C261,332.318141 258.304844,335 254.991827,335 L119.008173,335 C115.689951,335 113.741736,332.40919 114.623686,329.218182 C114.623686,329.218182 119,314.609783 119,308 C119,301.390217 117.734886,301.084953 117.734886,301.084953 Z" id="Rectangle-52" fill="#D6D2CF"></path>
            <g id="Rectangle-52">
                <use fill="#CCBAAF" fill-rule="evenodd" xlink:href="#path-34"></use>
                <path stroke="#D0BDB0" stroke-width="5" d="M403.5,347.233595 L403.5,363.994949 C403.5,365.929642 401.929778,367.5 399.997748,367.5 L119.002252,367.5 C117.071975,367.5 115.5,365.927642 115.5,364.00394 L115.5,347.270465 C116.130647,347.200904 116.81864,347.125421 117.561898,347.044331 C121.014584,346.667639 124.944085,346.24785 129.278901,345.79574 C141.664863,344.503918 154.814554,343.212074 168.155648,342.006432 C179.194777,341.00882 189.893399,340.113891 200.080385,339.347381 C224.388843,337.518316 244.652205,336.501897 259.500319,336.5 C274.348433,336.498103 294.611792,337.509342 318.920249,339.332196 C329.123376,340.097312 339.839586,340.99111 350.896879,341.987764 C364.227373,343.189315 377.365061,344.476776 389.73859,345.764214 C394.069053,346.21479 397.99446,346.633154 401.443429,347.008568 C402.184673,347.08925 402.870886,347.164363 403.5,347.233595 Z"></path>
            </g>
            <g id="Rectangle-52">
                <use fill="#9C938D" fill-rule="evenodd" xlink:href="#path-35"></use>
                <path stroke="#E0CFC4" stroke-width="5" d="M115.5,342.997152 C115.5,342.72114 115.720888,342.5 115.995363,342.5 L403.004637,342.5 C403.278002,342.5 403.5,342.722118 403.5,342.997152 L403.5,346 C403.5,347.931434 401.930249,349.5 399.997748,349.5 L119.002252,349.5 C117.070564,349.5 115.5,347.928807 115.5,346 L115.5,342.997152 Z"></path>
            </g>
            <g id="Rectangle-52">
                <use fill="#B0A59E" fill-rule="evenodd" xlink:href="#path-36"></use>
                <path stroke="#938073" stroke-width="5" d="M115.5,319.995103 C115.5,314.200085 120.203992,309.5 126.004301,309.5 L247.995699,309.5 C253.795333,309.5 258.5,314.202756 258.5,319.995103 L258.5,334.004817 C258.5,335.931812 256.927473,337.5 254.991827,337.5 L119.008173,337.5 C117.070438,337.5 115.5,335.932523 115.5,334.004817 L115.5,319.995103 Z"></path>
            </g>
            <path d="M118,318 C118,314.686292 120.676701,312 123.996142,312 L246.003858,312 C249.315436,312 252,314.693034 252,318 L252,318 C252,321.313708 249.323299,324 246.003858,324 L123.996142,324 C120.684564,324 118,321.306966 118,318 L118,318 Z" id="Rectangle-52" fill="#CBBCB2"></path>
            <path d="M233.883723,302.080477 C251.403088,302.080477 265.605339,299.621416 265.605339,279.918041 C265.605339,270.981896 272.814797,222.744572 265.605339,216.258005 C261.814771,212.847517 248.814913,216.258005 234.404771,216.258005 C219.994629,216.258005 210.370933,211.387548 205.584487,216.258005 C195.491246,226.528403 202.162107,260.214666 202.162107,279.918041 C202.162107,299.621416 216.364358,302.080477 233.883723,302.080477 Z" id="Oval-22" stroke="#D0BDB1" stroke-width="5" fill="#E1CFC4"></path>
            <path d="M344.904673,301.817045 C361.719614,301.817045 375.350818,299.456858 375.350818,280.545722 C375.350818,271.968884 382.270396,225.671099 375.350818,219.445346 C373.290038,217.5912 367.433482,217.918419 361.061136,216.678667 C356.183573,215.729728 351.40129,212.968695 345.404771,212.968695 C340.726542,212.968695 335.61413,215.333753 331.989005,215.787531 C324.896798,216.675306 320.78338,216.351908 317.743301,219.445346 C308.055891,229.302789 314.458529,261.634585 314.458529,280.545722 C314.458529,299.456858 328.089732,301.817045 344.904673,301.817045 Z" id="Oval-22" stroke="#D0BDB1" stroke-width="5" fill="#B0A59E"></path>
            <path d="M271.693392,230.531863 C271.396859,224.540892 270.497935,219.960831 268.605339,218.258005 C264.814771,214.847517 251.814913,218.258005 237.404771,218.258005 C222.994629,218.258005 213.370933,213.387548 208.584487,218.258005 C204.854189,222.053777 201.833658,222.227217 201.5,230.531863 C201.5,230.531863 226.315359,223.31261 236.596696,223.31261 C246.878033,223.31261 271.693392,230.531863 271.693392,230.531863 Z" id="Oval-22" fill="#E6DBD5"></path>
            <path d="M177,300.130051 C195.225397,300.130051 210,297.571889 210,277.074466 C210,267.778194 215,223.090659 207.5,216.342683 C200,209.594707 159.5,205.658388 149,216.342683 C146.440733,218.94687 144.83201,222.671855 143.862506,227.11337 C140.854387,240.894219 144,261.57308 144,277.074466 C144,297.571889 158.774603,300.130051 177,300.130051 Z" id="Oval-22" stroke="#D0BDB1" stroke-width="5" fill="#E1CFC4"></path>
            <path d="M209.225393,230.105123 C208.693484,223.981863 207.575269,219.209865 205.5,217.342683 C198.003644,210.597985 162.5,206.658388 152,217.342683 C149.440733,219.94687 147.969505,220.558486 147,225 C145.144291,233.50141 160.673913,223.077904 181,221.797481 C201.326087,220.517059 209.758056,236.237071 209.225393,230.105123 Z" id="Oval-22" fill="#E6DCD5"></path>
            <path d="M296.995027,303.467603 C316.159844,303.467603 331.695997,300.777582 331.695997,279.223629 C331.695997,269.448185 336.95372,222.457251 329.067136,215.361453 C324.649959,211.387186 311.543913,215.299013 296.995027,215.361453 C282.446141,215.423893 272.40895,210.419031 267.55178,215.361453 C256.510562,226.596466 262.294057,257.669675 262.294057,279.223629 C262.294057,300.777582 277.830211,303.467603 296.995027,303.467603 Z" id="Oval-22" stroke="#D0BDB1" stroke-width="5" fill="#B0A59E"></path>
            <path d="M344.904673,301.817045 C361.719614,301.817045 375.350818,299.456858 375.350818,280.545722 C375.350818,271.968884 382.270396,225.671099 375.350818,219.445346 C373.290038,217.5912 367.433482,217.918419 361.061136,216.678667 C356.183573,215.729728 351.40129,212.968695 345.404771,212.968695 C340.726542,212.968695 335.61413,215.333753 331.989005,215.787531 C324.896798,216.675306 320.78338,216.351908 317.743301,219.445346 C308.055891,229.302789 314.458529,261.634585 314.458529,280.545722 C314.458529,299.456858 328.089732,301.817045 344.904673,301.817045 Z" id="Oval-22" stroke="#D0BDB1" stroke-width="5" fill="#E1CFC4"></path>
            <path d="M374.981948,226.708112 C374.653851,223.151279 373.964651,220.489346 372.737457,219.385202 C371.070089,217.885021 366.331575,218.149772 361.175738,217.146694 C357.229323,216.378912 353.359999,214.144972 348.508242,214.144972 C344.723107,214.144972 340.586677,216.05853 337.653605,216.42568 C331.915331,217.143974 328.587183,216.882315 326.127468,219.385202 C324.542369,220.998123 323.489691,223.354722 322.818915,226.214794 C320.172823,237.497284 376.150666,239.377957 374.981948,226.708112 Z" id="Oval-22" fill="#E6DBD5"></path>
            <path d="M296.995027,303.467603 C316.159844,303.467603 331.695997,300.777582 331.695997,279.223629 C331.695997,269.448185 336.95372,222.457251 329.067136,215.361453 C324.649959,211.387186 311.543913,215.299013 296.995027,215.361453 C282.446141,215.423893 272.40895,210.419031 267.55178,215.361453 C256.510562,226.596466 262.294057,257.669675 262.294057,279.223629 C262.294057,300.777582 277.830211,303.467603 296.995027,303.467603 Z" id="Oval-22" stroke="#D0BDB1" stroke-width="5" fill="#E1CFC4"></path>
            <path d="M133.5,304 C149.516258,304 159,291.516258 159,275.5 C159,259.483742 151.016258,247 135,247 C118.983742,247 96.5,267.483742 96.5,283.5 C96.5,299.516258 117.483742,304 133.5,304 Z" id="Oval-22-Copy" stroke="#D0BDB0" stroke-width="5" fill="#FBEADF"></path>
            <path d="M123,306.015152 C139.016258,306.015152 152,304.016258 152,288 C152,271.983742 139.016258,259 123,259 C106.983742,259 94,271.983742 94,288 C94,304.016258 106.983742,306.015152 123,306.015152 Z" id="Oval-22" stroke="#D0BDB0" stroke-width="5" fill="#CCBEB6"></path>
            <path d="M123,303.988636 C137.635546,303.988636 149.5,302.162061 149.5,287.526515 C149.5,279.693392 129.536972,289.044548 123,282.507576 C116.463028,275.970604 129.802423,261.026515 123,261.026515 C108.364454,261.026515 96.5,272.890969 96.5,287.526515 C96.5,302.162061 108.364454,303.988636 123,303.988636 Z" id="Oval-22" fill="#E3D5CB"></path>
            <g id="Group-3" transform="translate(343.500000, 293.500000) scale(-1, 1) translate(-343.500000, -293.500000) translate(260.000000, 247.000000)">
                <path d="M24.7887494,53.6160537 C21.5917114,47.2006844 24.8245475,42 32.0043007,42 L153.995699,42 C161.177776,42 167,47.8259318 167,54.9973052 L167,82.0099006 C167,85.3181411 164.304844,88 160.991827,88 L25.008173,88 C21.6899507,88 19.9121491,85.4826887 21.0098624,82.3396853 C21.0098624,82.3396853 26.5,67.8866234 26.5,61 C26.5,54.1133766 24.7887494,53.6160537 24.7887494,53.6160537 Z" id="Rectangle-52" fill="#D6D2CF"></path>
                <g id="Rectangle-52">
                    <use fill="#B0A59E" fill-rule="evenodd" xlink:href="#path-37"></use>
                    <path stroke="#938073" stroke-width="5" d="M21.5,72.9951032 C21.5,67.2000849 26.203992,62.5 32.0043007,62.5 L153.995699,62.5 C159.795333,62.5 164.5,67.202756 164.5,72.9951032 L164.5,87.0048168 C164.5,88.9318118 162.927473,90.5 160.991827,90.5 L25.008173,90.5 C23.0704383,90.5 21.5,88.9325234 21.5,87.0048168 L21.5,72.9951032 Z"></path>
                </g>
                <path d="M39.5,57 C55.5162577,57 65,44.5162577 65,28.5 C65,12.4837423 57.0162577,0 41,0 C24.9837423,0 2.5,20.4837423 2.5,36.5 C2.5,52.5162577 23.4837423,57 39.5,57 Z" id="Oval-22-Copy" stroke="#D0BDB0" stroke-width="5" fill="#FBEADF"></path>
                <path d="M29,59.0151515 C45.0162577,59.0151515 58,57.0162577 58,41 C58,24.9837423 45.0162577,12 29,12 C12.9837423,12 0,24.9837423 0,41 C0,57.0162577 12.9837423,59.0151515 29,59.0151515 Z" id="Oval-22" stroke="#D0BDB0" stroke-width="5" fill="#CCBEB6"></path>
            </g>
            <g id="Group" transform="translate(141.000000, 215.000000)">
                <path d="M189.5,14.531863 C189.203467,8.54089168 189.497935,3.96083142 187.605339,2.25800526 C183.814771,-1.15248311 170.814913,2.25800526 156.404771,2.25800526 C141.994629,2.25800526 136.5,-1.25800526 131,0.5 C125.5,2.25800526 123.833658,6.22721729 123.5,14.531863 C123.5,14.531863 138.218663,10 148.5,10 C158.781337,10 189.5,14.531863 189.5,14.531863 Z" id="Oval-22" fill="#E6DBD5"></path>
                <path d="M127,103 C127,99.6862915 129.676701,97 132.996142,97 L255.003858,97 C258.315436,97 261,99.6930342 261,103 L261,103 C261,106.313708 258.323299,109 255.003858,109 L132.996142,109 C129.684564,109 127,106.306966 127,103 L127,103 Z" id="Rectangle-52" fill="#CBBCB2" transform="translate(194.000000, 103.000000) scale(-1, 1) translate(-194.000000, -103.000000) "></path>
                <path d="M258,88.9886364 C272.635546,88.9886364 284.5,87.162061 284.5,72.5265152 C284.5,64.6933923 264.536972,74.044548 258,67.5075758 C251.463028,60.9706036 264.802423,46.0265152 258,46.0265152 C243.364454,46.0265152 231.5,57.8909693 231.5,72.5265152 C231.5,87.162061 243.364454,88.9886364 258,88.9886364 Z" id="Oval-22" fill="#E3D5CB" transform="translate(258.000000, 67.507576) scale(-1, 1) translate(-258.000000, -67.507576) "></path>
                <path d="M69.1252346,84.2035583 C81.2852417,84.2035583 91.1428751,83.1300704 91.1428751,74.5286834 C91.1428751,70.6276645 96.1468843,49.5699581 91.1428751,46.7382874 C88.5118816,45.2494598 79.4888171,46.7382874 69.4868889,46.7382874 C59.4849607,46.7382874 52.8052544,44.6121193 49.4830325,46.7382874 C42.4774196,51.221766 47.107594,65.9272964 47.107594,74.5286834 C47.107594,83.1300704 56.9652275,84.2035583 69.1252346,84.2035583 Z" id="Oval-22" stroke="#938073" stroke-width="5" fill="#709A9E" transform="translate(69.486889, 64.998441) rotate(8.000000) translate(-69.486889, -64.998441) "></path>
                <path d="M146.18371,84.0885584 C157.854784,84.0885584 167.316059,83.0582336 167.316059,74.8026935 C167.316059,71.0585279 172.118866,50.8475156 167.316059,48.1297015 C165.885693,47.3202856 161.82072,47.4631308 157.397741,46.9219248 C154.012276,46.5076714 150.692943,45.3023593 146.530823,45.3023593 C143.283713,45.3023593 139.735242,46.3348106 137.219081,46.5329049 C132.296454,46.9204574 129.441374,46.77928 127.331287,48.1297015 C120.607358,52.4329072 125.051361,66.5471535 125.051361,74.8026935 C125.051361,83.0582336 134.512636,84.0885584 146.18371,84.0885584 Z" id="Oval-22" stroke="#938073" stroke-width="5" fill="#C4D1B3" transform="translate(146.530823, 64.695459) rotate(-10.000000) translate(-146.530823, -64.695459) "></path>
                <path d="M29.6428402,83.3521116 C42.2928966,83.3521116 52.5477936,82.235362 52.5477936,73.2873384 C52.5477936,69.2291081 56.018241,49.7210402 50.8125698,46.7752529 C45.6068986,43.8294656 17.4962741,42.1110897 10.2083344,46.7752529 C2.92039466,51.4394161 6.73788688,64.3393147 6.73788688,73.2873384 C6.73788688,82.235362 16.9927838,83.3521116 29.6428402,83.3521116 Z" id="Oval-22" stroke="#938073" stroke-width="5" fill="#CEBBBB" transform="translate(29.709805, 63.619067) rotate(-21.000000) translate(-29.709805, -63.619067) "></path>
                <path d="M112.930128,84.8090994 C126.232226,84.8090994 137.015707,83.6347875 137.015707,74.2255421 C137.015707,69.9581321 140.665037,49.4445298 135.191042,46.3469032 C132.125125,44.6119613 123.028357,46.3196454 112.930128,46.3469032 C102.831899,46.374161 95.8651898,44.1893192 92.4938794,46.3469032 C84.8302861,51.2514786 88.8445493,64.8162966 88.8445493,74.2255421 C88.8445493,83.6347875 99.6280302,84.8090994 112.930128,84.8090994 Z" id="Oval-22" stroke="#938073" stroke-width="5" fill="#CEBBBB" transform="translate(113.000544, 65.101553) rotate(-21.000000) translate(-113.000544, -65.101553) "></path>
                <path d="M179.64284,83.3521116 C192.292897,83.3521116 202.547794,82.235362 202.547794,73.2873384 C202.547794,69.2291081 206.018241,49.7210402 200.81257,46.7752529 C195.606899,43.8294656 167.496274,42.1110897 160.208334,46.7752529 C152.920395,51.4394161 156.737887,64.3393147 156.737887,73.2873384 C156.737887,82.235362 166.992784,83.3521116 179.64284,83.3521116 Z" id="Oval-22" stroke="#938073" stroke-width="5" fill="#709A9E" transform="translate(179.709805, 63.619067) rotate(-21.000000) translate(-179.709805, -63.619067) "></path>
                <path d="M203.942008,81.4841749 C214.999866,81.4841749 223.96403,80.507985 223.96403,72.686204 C223.96403,69.1387627 226.99767,52.0860771 222.44721,49.5110613 C219.898555,48.0688271 212.336532,49.4884022 203.942008,49.5110613 C195.547484,49.5337203 189.756151,47.7174903 186.953626,49.5110613 C180.582982,53.5881697 183.919986,64.8644231 183.919986,72.686204 C183.919986,80.507985 192.884151,81.4841749 203.942008,81.4841749 Z" id="Oval-22" stroke="#938073" stroke-width="5" fill="#C4D1B3" transform="translate(204.000544, 65.101553) scale(-1, 1) rotate(-21.000000) translate(-204.000544, -65.101553) "></path>
            </g>
            <g id="Rectangle-2">
                <use fill="#5E4F42" fill-rule="evenodd" xlink:href="#path-38"></use>
                <rect stroke="#FFF0DF" stroke-width="9" x="232.5" y="40.5" width="58" height="90"></rect>
            </g>
        </g>
    </g>
</svg>