<?xml version="1.0" encoding="UTF-8"?>
<svg width="500px" height="400px" viewBox="0 0 500 400" version="1.1" xmlns="http://www.w3.org/2000/svg" xmlns:xlink="http://www.w3.org/1999/xlink">
    <!-- Generator: Sketch 43.2 (39069) - http://www.bohemiancoding.com/sketch -->
    <title>modern family</title>
    <desc>Created with Sketch.</desc>
    <defs>
        <rect id="path-1" x="462" y="-2" width="38" height="368"></rect>
        <rect id="path-2" x="-1" y="-2" width="38" height="368"></rect>
        <rect id="path-3" x="18" y="0" width="19" height="359"></rect>
        <rect id="path-4" x="461" y="0" width="19" height="359"></rect>
        <rect id="path-5" x="376" y="89" width="22" height="26"></rect>
        <rect id="path-6" x="351" y="74" width="22" height="26"></rect>
        <rect id="path-7" x="327" y="59" width="22" height="26"></rect>
        <rect id="path-8" x="161" y="170" width="22" height="26"></rect>
        <rect id="path-9" x="75" y="203" width="22" height="12"></rect>
        <rect id="path-10" x="184" y="186" width="19" height="26"></rect>
        <rect id="path-11" x="302" y="44" width="22" height="26"></rect>
        <rect id="path-12" x="282" y="14" width="22" height="26"></rect>
        <rect id="path-13" x="351.7359" y="49.6071429" width="18.3103561" height="20.8928571"></rect>
        <rect id="path-14" x="330.760966" y="34.5535714" width="18.3103561" height="20.8928571"></rect>
        <rect id="path-15" x="307.953743" y="19.5" width="18.3103561" height="20.8928571"></rect>
        <rect id="path-16" x="376" y="72" width="19" height="13"></rect>
        <rect id="path-17" x="351" y="34" width="19" height="13"></rect>
        <path d="M72,317.000212 C72,314.790956 73.7715742,312.710497 75.9404244,312.361927 C75.9404244,312.361927 129.205625,303.5 154,303.5 C178.794375,303.5 246.037659,312.4808 246.037659,312.4808 C248.226,312.767546 250,314.792032 250,317.000212 L250,342.999788 C250,345.209044 248.209394,347 245.990319,347 L76.0096814,347 C73.7951955,347 72,345.207968 72,342.999788 L72,317.000212 Z" id="path-18"></path>
        <path d="M72,317.000212 C72,314.790956 73.7802107,313.064047 75.9937839,313.143686 L155.385922,316 L245.994983,313.12699 C248.206893,313.056855 250,314.792032 250,317.000212 L250,342.999788 C250,345.209044 248.212253,347.055934 246.001984,347.125087 L154.114213,350 L75.9882894,347.14571 C73.785618,347.065237 72,345.207968 72,342.999788 L72,317.000212 Z" id="path-19"></path>
        <path d="M249,317.000212 C249,314.790956 250.771574,312.710497 252.940424,312.361927 C252.940424,312.361927 306.205625,303.5 331,303.5 C355.794375,303.5 423.037659,312.4808 423.037659,312.4808 C425.226,312.767546 427,314.792032 427,317.000212 L427,342.999788 C427,345.209044 425.209394,347 422.990319,347 L253.009681,347 C250.795195,347 249,345.207968 249,342.999788 L249,317.000212 Z" id="path-20"></path>
        <path d="M249,317.000212 C249,314.790956 250.780211,313.064047 252.993784,313.143686 L332.385922,316 L422.994983,313.12699 C425.206893,313.056855 427,314.792032 427,317.000212 L427,342.999788 C427,345.209044 425.212253,347.055934 423.001984,347.125087 L331.114213,350 L252.988289,347.14571 C250.785618,347.065237 249,345.207968 249,342.999788 L249,317.000212 Z" id="path-21"></path>
    </defs>
    <g id="Page-1" stroke="none" stroke-width="1" fill="none" fill-rule="evenodd">
        <g id="modern-family">
            <rect id="Rectangle-35-Copy" fill="#9BB1BD" x="37" y="-1" width="424" height="356"></rect>
            <rect id="Rectangle-2" fill="#665344" x="18" y="159" width="134" height="176"></rect>
            <polygon id="Path-66" fill="#CEC7C0" points="29 -70.5 36 67.5 411 309.5 423 176"></polygon>
            <polygon id="Path-66" fill="#EFEAE4" points="35.5 36 36 67.5 411 309.5 411 273"></polygon>
            <polygon id="Path-66" fill="#C5C0BB" points="35.8295786 56.7634502 36 67.5 411 309.5 411 300.5"></polygon>
            <g id="Rectangle-35">
                <use fill="#E0C7A2" fill-rule="evenodd" xlink:href="#path-1"></use>
                <rect stroke="#979797" stroke-width="1" x="462.5" y="-1.5" width="37" height="367"></rect>
            </g>
            <g id="Rectangle-35-Copy">
                <use fill="#E0C7A2" fill-rule="evenodd" xlink:href="#path-2"></use>
                <rect stroke="#979797" stroke-width="1" x="-0.5" y="-1.5" width="37" height="367"></rect>
            </g>
            <g id="Rectangle-35-Copy">
                <use fill="#EBE1D5" fill-rule="evenodd" xlink:href="#path-3"></use>
                <rect stroke="#F0E6E6" stroke-width="3" x="19.5" y="1.5" width="16" height="356"></rect>
            </g>
            <g id="Rectangle-35-Copy">
                <use fill="#EBE1D5" fill-rule="evenodd" xlink:href="#path-4"></use>
                <rect stroke="#F0E6E6" stroke-width="3" x="462.5" y="1.5" width="16" height="356"></rect>
            </g>
            <rect id="Rectangle-3" fill="#88A1AE" x="65" y="180" width="41" height="35" rx="4"></rect>
            <rect id="Rectangle-3" fill="#88A1AE" x="79" y="163" width="14" height="12" rx="4"></rect>
            <rect id="Rectangle-3" fill="#88A1AE" x="59" y="163" width="14" height="12" rx="4"></rect>
            <rect id="Rectangle-3" fill="#88A1AE" x="39" y="163" width="14" height="12" rx="4"></rect>
            <rect id="Rectangle-3" fill="#88A1AE" x="118" y="163" width="14" height="12" rx="4"></rect>
            <rect id="Rectangle-3" fill="#88A1AE" x="136" y="163" width="14" height="12" rx="4"></rect>
            <rect id="Rectangle-3" fill="#88A1AE" x="98" y="163" width="14" height="12" rx="4"></rect>
            <rect id="Rectangle" fill="#463528" x="56" y="50" width="36.3279686" height="9" rx="4"></rect>
            <rect id="Rectangle" fill="#463528" x="92.8143032" y="72" width="36.3279686" height="9" rx="4"></rect>
            <rect id="Rectangle" fill="#463528" x="123.710599" y="95" width="36.3279686" height="9" rx="4"></rect>
            <rect id="Rectangle" fill="#463528" x="152.524902" y="115" width="36.3279686" height="9" rx="4"></rect>
            <rect id="Rectangle" fill="#463528" x="188.366536" y="134" width="36.3279686" height="9" rx="4"></rect>
            <rect id="Rectangle" fill="#463528" x="221.180839" y="155" width="36.3279686" height="9" rx="4"></rect>
            <rect id="Rectangle" fill="#463528" x="255.077134" y="176" width="36.3279686" height="9" rx="4"></rect>
            <rect id="Rectangle" fill="#463528" x="324.077134" y="220" width="36.3279686" height="9" rx="4"></rect>
            <rect id="Rectangle" fill="#463528" x="291.077134" y="198" width="36.3279686" height="9" rx="4"></rect>
            <rect id="Rectangle" fill="#463528" x="357.891437" y="241" width="36.3279686" height="9" rx="4"></rect>
            <path d="M52.0625,289.3125 L52.4375,185.8125" id="Path-72" stroke="#4A3B30" stroke-width="6" stroke-linecap="round"></path>
            <path d="M118.0625,289.3125 L118.4375,185.8125" id="Path-72" stroke="#4A3B30" stroke-width="6" stroke-linecap="round"></path>
            <rect id="Rectangle-35-Copy" fill="#64554B" x="-3" y="356" width="504" height="45"></rect>
            <rect id="Rectangle-36" fill="#FBF8F8" x="82" y="-33" width="7" height="75" rx="3.5"></rect>
            <rect id="Rectangle-36" fill="#FBF8F8" x="62" y="-45" width="7" height="75" rx="3.5"></rect>
            <rect id="Rectangle-36" fill="#FBF8F8" x="43" y="-58" width="7" height="75" rx="3.5"></rect>
            <rect id="Rectangle-36" fill="#FBF8F8" x="102" y="-22" width="7" height="75" rx="3.5"></rect>
            <rect id="Rectangle-36" fill="#FBF8F8" x="122" y="-11" width="7" height="75" rx="3.5"></rect>
            <rect id="Rectangle-36" fill="#FBF8F8" x="142" y="2" width="7" height="75" rx="3.5"></rect>
            <rect id="Rectangle-36" fill="#FBF8F8" x="162" y="14" width="7" height="75" rx="3.5"></rect>
            <rect id="Rectangle-36" fill="#FBF8F8" x="182" y="29" width="7" height="75" rx="3.5"></rect>
            <rect id="Rectangle-36" fill="#FBF8F8" x="202" y="40" width="7" height="75" rx="3.5"></rect>
            <rect id="Rectangle-36" fill="#FBF8F8" x="222" y="52" width="7" height="75" rx="3.5"></rect>
            <rect id="Rectangle-36" fill="#FBF8F8" x="242" y="67" width="7" height="75" rx="3.5"></rect>
            <rect id="Rectangle-36" fill="#FBF8F8" x="262" y="78" width="7" height="75" rx="3.5"></rect>
            <rect id="Rectangle-36" fill="#FBF8F8" x="282" y="92" width="7" height="75" rx="3.5"></rect>
            <rect id="Rectangle-36" fill="#FBF8F8" x="302" y="103" width="7" height="75" rx="3.5"></rect>
            <rect id="Rectangle-36" fill="#FBF8F8" x="322" y="114" width="7" height="75" rx="3.5"></rect>
            <rect id="Rectangle-36" fill="#FBF8F8" x="342" y="132" width="7" height="75" rx="3.5"></rect>
            <rect id="Rectangle-36" fill="#FBF8F8" x="342" y="128" width="7" height="75" rx="3.5"></rect>
            <rect id="Rectangle-36" fill="#FBF8F8" x="362" y="140" width="7" height="75" rx="3.5"></rect>
            <rect id="Rectangle-36" fill="#FBF8F8" x="382" y="152" width="7" height="75" rx="3.5"></rect>
            <path d="M408,149.507273 C408,147.57026 409.567864,146 411.506476,146 L430.493524,146 C432.430097,146 434,147.572845 434,149.507273 L434,309.492727 C434,311.42974 432.432136,313 430.493524,313 L411.506476,313 C409.569903,313 408,311.427155 408,309.492727 L408,149.507273 Z" id="Rectangle-36" fill="#FBF8F8"></path>
            <path d="M420,149.507273 C420,147.57026 421.565227,146 423.496677,146 L430.503323,146 C432.434484,146 434,147.572845 434,149.507273 L434,309.492727 C434,311.42974 432.434773,313 430.503323,313 L423.496677,313 C421.565516,313 420,311.427155 420,309.492727 L420,149.507273 Z" id="Rectangle-36" fill="#E4E4E4"></path>
            <g id="Rectangle-37">
                <use fill="#D8D8D8" fill-rule="evenodd" xlink:href="#path-5"></use>
                <rect stroke="#849F72" stroke-width="3" x="377.5" y="90.5" width="19" height="23"></rect>
            </g>
            <g id="Rectangle-37">
                <use fill="#D8D8D8" fill-rule="evenodd" xlink:href="#path-6"></use>
                <rect stroke="#628494" stroke-width="3" x="352.5" y="75.5" width="19" height="23"></rect>
            </g>
            <g id="Rectangle-37">
                <use fill="#D8D8D8" fill-rule="evenodd" xlink:href="#path-7"></use>
                <rect stroke="#979797" stroke-width="2" x="328" y="60" width="20" height="24"></rect>
            </g>
            <g id="Rectangle-37">
                <use fill="#D8D8D8" fill-rule="evenodd" xlink:href="#path-8"></use>
                <rect stroke="#957A65" stroke-width="4" x="163" y="172" width="18" height="22"></rect>
            </g>
            <g id="Rectangle-37">
                <use fill="#D8D8D8" fill-rule="evenodd" xlink:href="#path-9"></use>
                <rect stroke="#816A58" stroke-width="4" x="77" y="205" width="18" height="8"></rect>
            </g>
            <g id="Rectangle-37">
                <use fill="#D8D8D8" fill-rule="evenodd" xlink:href="#path-10"></use>
                <rect stroke="#979797" stroke-width="3" x="185.5" y="187.5" width="16" height="23"></rect>
            </g>
            <g id="Rectangle-37">
                <use fill="#D8D8D8" fill-rule="evenodd" xlink:href="#path-11"></use>
                <rect stroke="#E8DDDD" stroke-width="2" x="303" y="45" width="20" height="24"></rect>
            </g>
            <g id="Rectangle-37">
                <use fill="#D8D8D8" fill-rule="evenodd" xlink:href="#path-12"></use>
                <rect stroke="#9EBA83" stroke-width="3" x="283.5" y="15.5" width="19" height="23"></rect>
            </g>
            <g id="Rectangle-37">
                <use fill="#D8D8D8" fill-rule="evenodd" xlink:href="#path-13"></use>
                <rect stroke="#D3A4A4" stroke-width="2" x="352.7359" y="50.6071429" width="16.3103561" height="18.8928571"></rect>
            </g>
            <g id="Rectangle-37">
                <use fill="#D8D8D8" fill-rule="evenodd" xlink:href="#path-14"></use>
                <rect stroke="#6F6D53" stroke-width="3" x="332.260966" y="36.0535714" width="15.3103561" height="17.8928571"></rect>
            </g>
            <g id="Rectangle-37">
                <use fill="#D8D8D8" fill-rule="evenodd" xlink:href="#path-15"></use>
                <rect stroke="#979797" stroke-width="2" x="308.953743" y="20.5" width="16.3103561" height="18.8928571"></rect>
            </g>
            <g id="Rectangle-37">
                <use fill="#D8D8D8" fill-rule="evenodd" xlink:href="#path-16"></use>
                <rect stroke="#979797" stroke-width="3" x="377.5" y="73.5" width="16" height="10"></rect>
            </g>
            <g id="Rectangle-37">
                <use fill="#D8D8D8" fill-rule="evenodd" xlink:href="#path-17"></use>
                <rect stroke="#979797" stroke-width="2" x="352" y="35" width="17" height="11"></rect>
            </g>
            <path d="M131.5,220 C131.5,220 63.749116,253.767547 56.5,271.5 C49.250884,289.232453 56.5,379 56.5,379 L443,379 L443,271.5 L390,227 L248.139085,247 L131.5,220 Z" id="Path-67" stroke="#927960" stroke-width="5" fill="#A98B6E"></path>
            <path d="M56.5,358.797242 C57.3260458,373.329936 56.5,379 56.5,379 L443,379 L443,358.797242 C443,358.797242 417.405602,368.15444 402,368.898621 C386.594398,369.642802 316.116314,364.786811 250.186948,366.838071 C211.334453,368.046889 172.970377,368.898621 142,368.898621 C35.3439555,368.898621 56.5,358.797242 56.5,358.797242 Z" id="Path-67" fill="#987A5D"></path>
            <path d="M268.224346,247.081826 C262.885191,249.987951 257.29167,257.102319 255.838529,263.000361 C255.838529,263.000361 242.802753,308.147287 253.525448,318.843831 C264.248144,329.540374 339.670354,318.843831 339.670354,318.843831 L440.859458,318.843831 C440.859458,318.843831 450.872154,269.47812 440.859458,252.343831 C430.846763,235.209542 328.000119,220.078411 328.000119,220.078411 C323.638882,219.396571 316.95604,220.556953 313.073226,222.670385 L268.224346,247.081826 Z" id="Path-69" stroke="#B5987B" stroke-width="5" fill="#CCB198" transform="translate(347.301528, 271.740470) scale(-1, 1) translate(-347.301528, -271.740470) "></path>
            <path d="M86.8482289,244.689432 C81.6383364,247.81227 76.2573679,255.139083 74.931761,261.068225 C74.931761,261.068225 63.1089114,306.147287 72.8459093,316.843831 C82.5829071,327.540374 151.071831,316.843831 151.071831,316.843831 L242.958993,316.843831 C242.958993,316.843831 252.051258,267.47812 242.958993,250.343831 C233.866728,233.209542 141.177398,218.203691 141.177398,218.203691 C136.828817,217.452661 130.239155,218.680673 126.436546,220.959978 L86.8482289,244.689432 Z" id="Path-69" stroke="#B5987B" stroke-width="5" fill="#CCB198"></path>
            <path d="M88.3355043,268.625042 C82.3042123,269.396378 75.8715315,274.70769 74.1411655,280.515256 C74.1411655,280.515256 63.1089114,310.414186 72.8459093,318.156723 C82.5829071,325.899259 151.071831,318.156723 151.071831,318.156723 L241.958993,317.156723 C241.958993,317.156723 243.592265,294.402405 234.5,282 C225.407735,269.597595 132.485473,264.503642 132.485473,264.503642 C128.075218,264.225488 120.941663,264.455072 116.565896,265.014685 L88.3355043,268.625042 Z" id="Path-69" fill="#B2967C"></path>
            <path d="M275.335504,276.625042 C269.304212,277.396378 262.871531,282.70769 261.141166,288.515256 C261.141166,288.515256 250.108911,318.414186 259.845909,326.156723 C269.582907,333.899259 338.071831,326.156723 338.071831,326.156723 L428.958993,325.156723 C428.958993,325.156723 430.592265,302.402405 421.5,290 C412.407735,277.597595 319.485473,272.503642 319.485473,272.503642 C315.075218,272.225488 307.941663,272.455072 303.565896,273.014685 L275.335504,276.625042 Z" id="Path-69" fill="#B2967C"></path>
            <path d="M53.721264,251.554799 C47.8000734,252.905246 45.3336007,258.339039 48.2125726,263.692127 L75,313.5 L126.5,309 L102.90542,248.455418 C101.300801,244.337904 96.4988329,241.798512 92.1939094,242.780336 L53.721264,251.554799 Z" id="Path-69" stroke="#876B22" stroke-width="4" fill="#CCAE6B"></path>
            <path d="M385.721264,271.554799 C379.800073,272.905246 377.333601,278.339039 380.212573,283.692127 L407,333.5 L458.5,329 L434.90542,268.455418 C433.300801,264.337904 428.498833,261.798512 424.193909,262.780336 L385.721264,271.554799 Z" id="Path-69" stroke="#A05041" stroke-width="4" fill="#EC953C" transform="translate(416.750000, 297.250000) scale(-1, 1) translate(-416.750000, -297.250000) "></path>
            <path d="M394.379331,333.5 L445.879331,329 L427.081084,280.762989 C427.081084,280.762989 381.619324,280.243307 375.879331,289.5 C370.139338,298.756693 394.379331,333.5 394.379331,333.5 Z" id="Path-69" fill="#BC683C" transform="translate(410.439665, 307.128847) scale(-1, 1) translate(-410.439665, -307.128847) "></path>
            <path d="M69.0713172,254.695711 C63.7852247,256.244477 61.7807595,261.350342 64.453411,266.189391 C64.453411,266.189391 69.7251669,273.861893 73.5,287.5 C77.2748331,301.138107 76.5,311.5 76.5,311.5 L126.5,309 C126.5,309 126.1673,264.368739 111.5,254.5 C96.8327004,244.631261 69.0713172,254.695711 69.0713172,254.695711 Z" id="Path-69" fill="#AE9459"></path>
            <path d="M56,318 C58.7253148,318 44.8679788,340.322728 52,380 C52,380 74.6995464,379.435762 75,380 C75.3004536,380.564238 72,312.123785 72,304 C72,292.954305 63.045695,286 52,286 C40.954305,286 36,292.954305 36,304 C36,315.045695 44.954305,318 56,318 Z" id="Oval-19" stroke="#927960" stroke-width="5" fill="#A98B6E"></path>
            <path d="M447,322 C449.725315,322 435.867979,344.322728 443,384 C443,384 465.699546,383.435762 466,384 C466.300454,384.564238 463,316.123785 463,308 C463,296.954305 454.045695,290 443,290 C431.954305,290 427,296.954305 427,308 C427,319.045695 435.954305,322 447,322 Z" id="Oval-19" stroke="#927960" stroke-width="5" fill="#A98B6E" transform="translate(446.509668, 337.001735) scale(-1, 1) translate(-446.509668, -337.001735) "></path>
            <g id="Rectangle-38">
                <use fill="#CCB298" fill-rule="evenodd" xlink:href="#path-18"></use>
                <path stroke="#927960" stroke-width="4" d="M74,317.000212 C74,315.773737 75.0578535,314.529436 76.2577848,314.336587 C76.3710858,314.317767 76.5725375,314.284501 76.8680233,314.236091 C77.361468,314.155249 77.9389692,314.061427 78.5955344,313.955707 C80.4725142,313.653476 82.6058861,313.316631 84.955699,312.953831 C91.6701572,311.917149 98.7715298,310.880441 105.93982,309.912994 C111.285261,309.191562 116.466509,308.536515 121.411845,307.963327 C135.047935,306.38284 146.210483,305.5 154,305.5 C162.577035,305.5 176.889897,306.580928 195.293174,308.483241 C199.730758,308.941946 204.34381,309.442297 209.092607,309.977803 C217.794045,310.959036 226.537463,312.010472 234.893804,313.061903 C237.818431,313.429893 240.485623,313.771577 242.84179,314.078184 C243.66621,314.185466 244.392789,314.280689 245.014829,314.362758 C245.38768,314.41195 245.642602,314.445795 245.772897,314.463197 C246.969729,314.620029 248,315.79534 248,317.000212 L248,342.999788 C248,344.105352 247.103943,345 245.990319,345 L76.0096814,345 C74.8991632,345 74,344.102794 74,342.999788 L74,317.000212 Z"></path>
            </g>
            <g id="Rectangle-38">
                <use fill="#CCB298" fill-rule="evenodd" xlink:href="#path-19"></use>
                <path stroke="#927960" stroke-width="5" d="M154.120768,347.498572 L76.0795647,344.647377 C75.2228933,344.616079 74.5,343.864479 74.5,342.999788 L74.5,317.000212 C74.5,316.202821 75.1094476,315.613487 75.9038989,315.642069 L155.296037,318.498384 L155.465152,318.498744 L246.074213,315.625734 C246.875584,315.600325 247.5,316.204308 247.5,317.000212 L247.5,342.999788 C247.5,343.859778 246.783452,344.599414 245.923804,344.62631 L154.120768,347.498572 Z"></path>
            </g>
            <g id="Rectangle-38">
                <use fill="#CCB298" fill-rule="evenodd" xlink:href="#path-20"></use>
                <path stroke="#927960" stroke-width="4" d="M251,317.000212 C251,315.773737 252.057854,314.529436 253.257785,314.336587 C253.371086,314.317767 253.572538,314.284501 253.868023,314.236091 C254.361468,314.155249 254.938969,314.061427 255.595534,313.955707 C257.472514,313.653476 259.605886,313.316631 261.955699,312.953831 C268.670157,311.917149 275.77153,310.880441 282.93982,309.912994 C288.285261,309.191562 293.466509,308.536515 298.411845,307.963327 C312.047935,306.38284 323.210483,305.5 331,305.5 C339.577035,305.5 353.889897,306.580928 372.293174,308.483241 C376.730758,308.941946 381.34381,309.442297 386.092607,309.977803 C394.794045,310.959036 403.537463,312.010472 411.893804,313.061903 C414.818431,313.429893 417.485623,313.771577 419.84179,314.078184 C420.66621,314.185466 421.392789,314.280689 422.014829,314.362758 C422.38768,314.41195 422.642602,314.445795 422.772897,314.463197 C423.969729,314.620029 425,315.79534 425,317.000212 L425,342.999788 C425,344.105352 424.103943,345 422.990319,345 L253.009681,345 C251.899163,345 251,344.102794 251,342.999788 L251,317.000212 Z"></path>
            </g>
            <g id="Rectangle-38">
                <use fill="#CCB298" fill-rule="evenodd" xlink:href="#path-21"></use>
                <path stroke="#927960" stroke-width="5" d="M331.120768,347.498572 L253.079565,344.647377 C252.222893,344.616079 251.5,343.864479 251.5,342.999788 L251.5,317.000212 C251.5,316.202821 252.109448,315.613487 252.903899,315.642069 L332.296037,318.498384 L332.465152,318.498744 L423.074213,315.625734 C423.875584,315.600325 424.5,316.204308 424.5,317.000212 L424.5,342.999788 C424.5,343.859778 423.783452,344.599414 422.923804,344.62631 L331.120768,347.498572 Z"></path>
            </g>
            <polygon id="Rectangle-38" fill="#B5987B" points="77 335.960056 155.385922 336.866812 245 335.960056 245 343.713974 154 345 77 343.713974"></polygon>
            <polygon id="Rectangle-38" fill="#B5987B" points="254 335.959912 332.70132 336.866682 422 335.959912 422 343.713954 331.5 345 254 343.713954"></polygon>
            <path d="M78.451239,255.63342 C76.8213147,255.926629 75.9721276,257.427007 76.5402548,258.982284 C76.5402548,258.982284 84.1201522,278.729143 85.017951,290.520224 C85.9157499,302.311305 85.2189231,309.02393 85.2189231,309.02393 C85.1079293,310.667568 86.3598361,311.902051 88.0169118,311.781722 C88.0169118,311.781722 170.004513,305.764234 187.002257,305.764234 C204,305.764234 186.11759,257.20348 186.11759,257.20348 C185.22422,254.60582 182.282932,252.269287 179.522626,252.007573 C179.522626,252.007573 162.423138,250 135.161781,250 C107.900425,250 78.451239,255.63342 78.451239,255.63342 Z" id="Path-68" stroke="#A05041" stroke-width="5" fill="#D8D8D8"></path>
            <path d="M298.451239,255.63342 C296.821315,255.926629 295.972128,257.427007 296.540255,258.982284 C296.540255,258.982284 304.120152,278.729143 305.017951,290.520224 C305.91575,302.311305 305.218923,309.02393 305.218923,309.02393 C305.107929,310.667568 306.359836,311.902051 308.016912,311.781722 C308.016912,311.781722 390.004513,305.764234 407.002257,305.764234 C424,305.764234 406.11759,257.20348 406.11759,257.20348 C405.22422,254.60582 402.282932,252.269287 399.522626,252.007573 C399.522626,252.007573 382.423138,250 355.161781,250 C327.900425,250 298.451239,255.63342 298.451239,255.63342 Z" id="Path-68" stroke="#A05041" stroke-width="5" fill="#D8D8D8" transform="translate(355.349015, 280.894911) scale(-1, 1) translate(-355.349015, -280.894911) "></path>
            <path d="M77.451239,255.63342 C75.8213147,255.926629 74.9721276,257.427007 75.5402548,258.982284 C75.5402548,258.982284 83.1201522,278.729143 84.017951,290.520224 C84.9157499,302.311305 84.2189231,309.02393 84.2189231,309.02393 C84.1079293,310.667568 85.3598361,311.902051 87.0169118,311.781722 C87.0169118,311.781722 169.004513,305.764234 186.002257,305.764234 C203,305.764234 185.11759,257.20348 185.11759,257.20348 C184.22422,254.60582 181.282932,252.269287 178.522626,252.007573 C178.522626,252.007573 161.423138,250 134.161781,250 C106.900425,250 77.451239,255.63342 77.451239,255.63342 Z" id="Path-68" fill="#5D6A67"></path>
            <path d="M77.451239,255.63342 C75.8213147,255.926629 74.9721276,257.427007 75.5402548,258.982284 C75.5402548,258.982284 83.1201522,278.729143 84.017951,290.520224 C84.9157499,302.311305 84.2189231,309.02393 84.2189231,309.02393 C84.1079293,310.667568 85.3583885,311.843364 86.9948058,311.657978 C86.9948058,311.657978 121.799007,307.449565 150.736626,307.449565 C156.5,307.449565 148,250.060554 142.325005,250.060554 C139.718391,250.060554 136.995229,250 134.161781,250 C106.900425,250 77.451239,255.63342 77.451239,255.63342 Z" id="Path-68" fill="#7B9791"></path>
            <path d="M77.4512865,255.630572 C75.821336,255.925354 74.9721276,257.427007 75.5402548,258.982284 C75.5402548,258.982284 83.1201522,278.729143 84.017951,290.520224 C84.9157499,302.311305 84.2189231,309.02393 84.2189231,309.02393 C84.1079293,310.667568 85.3478129,311.850496 87.0026325,311.670964 C87.0026325,311.670964 118.397475,308 147,308 C153.765736,308 143.111838,250.111137 140,250 C112,249 77.4512865,255.630572 77.4512865,255.630572 Z" id="Path-68" fill="#C9A152"></path>
            <path d="M77.4468795,255.634038 C75.8193629,255.926905 74.9721276,257.427007 75.5402548,258.982284 C75.5402548,258.982284 83.1201522,278.729143 84.017951,290.520224 C84.9157499,302.311305 84.2189231,309.02393 84.2189231,309.02393 C84.1079293,310.667568 85.3667021,311.897089 87.0049521,311.77319 C87.0049521,311.77319 110,310 134.635416,308.475648 C143.482619,307.928215 131.495613,250.013418 130.15839,250.038945 C104.096061,250.536455 77.4468795,255.634038 77.4468795,255.634038 Z" id="Path-68" fill="#E1A570"></path>
            <path d="M77.4249743,255.63735 C75.8095556,255.928388 74.9721276,257.427007 75.5402548,258.982284 C75.5402548,258.982284 83.1201522,278.729143 84.017951,290.520224 C84.9157499,302.311305 84.2189231,309.02393 84.2189231,309.02393 C84.1079293,310.667568 85.3552768,311.821273 86.9943429,311.61488 C86.9943429,311.61488 103.995513,309.177093 124.106967,309.177093 C129.5,309.177093 123.639569,250.206624 118.480328,250.54073 C96.7005976,251.951154 77.4249743,255.63735 77.4249743,255.63735 Z" id="Path-68" fill="#EEEEEE"></path>
            <path d="M77.4405361,255.634502 C75.8165229,255.927113 74.9721276,257.427007 75.5402548,258.982284 C75.5402548,258.982284 83.1201522,278.729143 84.017951,290.520224 C84.9157499,302.311305 84.2189231,309.02393 84.2189231,309.02393 C84.1079293,310.667568 85.3553355,311.889916 87.0055158,311.75607 C87.0055158,311.75607 102,310.5 112,310 C122,309.5 121.5,309 121.5,309 C127.5,309 122.015199,250.274703 116.122548,250.702786 C95.3303106,252.213281 77.4405361,255.634502 77.4405361,255.634502 Z" id="Path-68" fill="#5F8D82"></path>
            <path d="M77.448771,255.632088 C75.8202097,255.926033 74.9721276,257.427007 75.5402548,258.982284 C75.5402548,258.982284 83.1201522,278.729143 84.017951,290.520224 C84.9157499,302.311305 84.2189231,309.02393 84.2189231,309.02393 C84.1079293,310.667568 85.3583415,311.817484 86.990905,311.613381 C86.990905,311.613381 96.4958985,310.166398 109.694678,310.166398 C116,310.166398 112.40852,250.869126 102.942754,251.924618 C88.3094381,253.556323 77.448771,255.632088 77.448771,255.632088 Z" id="Path-68" fill="#5D6A67"></path>
            <path d="M77.4555798,255.629991 C75.8232581,255.925094 74.9721276,257.427007 75.5402548,258.982284 C75.5402548,258.982284 83.1201522,278.729143 84.017951,290.520224 C84.9157499,302.311305 84.2189231,309.02393 84.2189231,309.02393 C84.1079293,310.667568 85.3557188,311.82169 86.9881357,311.625028 C86.9881357,311.625028 93.555163,310.61437 103.304056,310.61437 C110,310.61437 105.956755,251.448028 95.1335935,252.875802 C84.6090228,254.264187 77.4555798,255.629991 77.4555798,255.629991 Z" id="Path-68" fill="#9A7733"></path>
            <path d="M77.4694519,255.712824 C75.8294689,255.962179 74.9721276,257.427007 75.5402548,258.982284 C75.5402548,258.982284 83.1201522,278.729143 84.017951,290.520224 C84.9157499,302.311305 84.2189231,309.02393 84.2189231,309.02393 C84.1079293,310.667568 85.3461162,312.221724 86.9916413,312.378345 C86.9916413,312.378345 89.4185943,313.218027 94,311.5 C98,310 90.5,253 83.4224965,254.598131 C79.6635412,255.446919 77.4694519,255.712824 77.4694519,255.712824 Z" id="Path-68" fill="#A05041"></path>
            <path d="M77.4167729,255.513891 C75.8058837,255.873114 74.9721276,257.427007 75.5402548,258.982284 C75.5402548,258.982284 83.1201522,278.729143 84.017951,290.520224 C84.9157499,302.311305 84.2189231,309.02393 84.2189231,309.02393 C84.1079293,310.667568 85.3556263,311.873546 86.9989969,311.736118 C86.9989969,311.736118 87.8171183,311.617049 89.2769689,311.617049 C98,311.617049 84.9690574,255.189184 79.9130361,255.189184 C78.32303,255.189184 77.4167729,255.513891 77.4167729,255.513891 Z" id="Path-68" fill="#CFAE98"></path>
            <g id="Group" transform="translate(354.500000, 281.000000) scale(-1, 1) translate(-354.500000, -281.000000) translate(295.000000, 249.000000)">
                <path d="M2.45123901,6.63341966 C0.821314711,6.92662864 -0.0278724339,8.42700675 0.540254755,9.98228373 C0.540254755,9.98228373 8.12015218,29.7291432 9.01795104,41.5202241 C9.9157499,53.311305 9.21892315,60.0239297 9.21892315,60.0239297 C9.10792931,61.6675679 10.3598361,62.902051 12.0169118,62.7817221 C12.0169118,62.7817221 94.0045134,56.7642339 111.002257,56.7642339 C128,56.7642339 110.11759,8.20348004 110.11759,8.20348004 C109.22422,5.60581974 106.282932,3.26928711 103.522626,3.00757266 C103.522626,3.00757266 86.4231376,1 59.1617812,1 C31.9004249,1 2.45123901,6.63341966 2.45123901,6.63341966 Z" id="Path-68" fill="#5D6A67"></path>
                <path d="M2.45123901,6.63341966 C0.821314711,6.92662864 -0.0278724339,8.42700675 0.540254755,9.98228373 C0.540254755,9.98228373 8.12015218,29.7291432 9.01795104,41.5202241 C9.9157499,53.311305 9.21892315,60.0239297 9.21892315,60.0239297 C9.10792931,61.6675679 10.3583885,62.8433637 11.9948058,62.6579778 C11.9948058,62.6579778 46.799007,58.4495649 75.7366258,58.4495649 C81.5,58.4495649 73,1.06055387 67.325005,1.06055387 C64.7183907,1.06055387 61.9952288,1 59.1617812,1 C31.9004249,1 2.45123901,6.63341966 2.45123901,6.63341966 Z" id="Path-68" fill="#7B9791"></path>
                <path d="M2.45128649,6.63057194 C0.821335971,6.92535367 -0.0278724339,8.42700675 0.540254755,9.98228373 C0.540254755,9.98228373 8.12015218,29.7291432 9.01795104,41.5202241 C9.9157499,53.311305 9.21892315,60.0239297 9.21892315,60.0239297 C9.10792931,61.6675679 10.3478129,62.8504956 12.0026325,62.6709635 C12.0026325,62.6709635 43.3974754,59 72,59 C78.7657355,59 68.1118384,1.11113709 65,1 C37,-1.57318603e-13 2.45128649,6.63057194 2.45128649,6.63057194 Z" id="Path-68" fill="#C9A152"></path>
                <path d="M2.4468795,6.6340379 C0.819362893,6.92690543 -0.0278724339,8.42700675 0.540254755,9.98228373 C0.540254755,9.98228373 8.12015218,29.7291432 9.01795104,41.5202241 C9.9157499,53.311305 9.21892315,60.0239297 9.21892315,60.0239297 C9.10792931,61.6675679 10.3667021,62.8970887 12.0049521,62.7731895 C12.0049521,62.7731895 35,61 59.6354164,59.4756484 C68.4826189,58.9282151 56.4956134,1.01341816 55.1583904,1.03894473 C29.0960606,1.53645492 2.4468795,6.6340379 2.4468795,6.6340379 Z" id="Path-68" fill="#E1A570"></path>
                <path d="M2.42497434,6.63734978 C0.809555618,6.92838821 -0.0278724339,8.42700675 0.540254755,9.98228373 C0.540254755,9.98228373 8.12015218,29.7291432 9.01795104,41.5202241 C9.9157499,53.311305 9.21892315,60.0239297 9.21892315,60.0239297 C9.10792931,61.6675679 10.3552768,62.8212729 11.9943429,62.6148801 C11.9943429,62.6148801 28.9955127,60.1770925 49.1069667,60.1770925 C54.5,60.1770925 48.6395691,1.20662447 43.4803279,1.54072968 C21.7005976,2.95115435 2.42497434,6.63734978 2.42497434,6.63734978 Z" id="Path-68" fill="#EEEEEE"></path>
                <path d="M2.44053614,6.63450217 C0.816522874,6.9271133 -0.0278724339,8.42700675 0.540254755,9.98228373 C0.540254755,9.98228373 8.12015218,29.7291432 9.01795104,41.5202241 C9.9157499,53.311305 9.21892315,60.0239297 9.21892315,60.0239297 C9.10792931,61.6675679 10.3553355,62.8899157 12.0055158,62.7560705 C12.0055158,62.7560705 27,61.5 37,61 C47,60.5 46.5,60 46.5,60 C52.5,60 47.0151988,1.27470259 41.1225479,1.70278619 C20.3303106,3.21328051 2.44053614,6.63450217 2.44053614,6.63450217 Z" id="Path-68" fill="#5F8D82"></path>
                <path d="M2.44877101,6.63208825 C0.82020975,6.92603255 -0.0278724339,8.42700675 0.540254755,9.98228373 C0.540254755,9.98228373 8.12015218,29.7291432 9.01795104,41.5202241 C9.9157499,53.311305 9.21892315,60.0239297 9.21892315,60.0239297 C9.10792931,61.6675679 10.3583415,62.8174837 11.990905,62.6133807 C11.990905,62.6133807 21.4958985,61.1663981 34.6946785,61.1663981 C41,61.1663981 37.4085204,1.86912577 27.9427543,2.92461761 C13.3094381,4.55632346 2.44877101,6.63208825 2.44877101,6.63208825 Z" id="Path-68" fill="#5D6A67"></path>
                <path d="M2.45557979,6.62999094 C0.823258146,6.92509355 -0.0278724339,8.42700675 0.540254755,9.98228373 C0.540254755,9.98228373 8.12015218,29.7291432 9.01795104,41.5202241 C9.9157499,53.311305 9.21892315,60.0239297 9.21892315,60.0239297 C9.10792931,61.6675679 10.3557188,62.8216897 11.9881357,62.6250285 C11.9881357,62.6250285 18.555163,61.6143697 28.3040565,61.6143697 C35,61.6143697 30.956755,2.44802779 20.1335935,3.875802 C9.60902279,5.26418657 2.45557979,6.62999094 2.45557979,6.62999094 Z" id="Path-68" fill="#9A7733"></path>
                <path d="M2.46945193,6.71282403 C0.829468914,6.96217919 -0.0278724339,8.42700675 0.540254755,9.98228373 C0.540254755,9.98228373 8.12015218,29.7291432 9.01795104,41.5202241 C9.9157499,53.311305 9.21892315,60.0239297 9.21892315,60.0239297 C9.10792931,61.6675679 10.3461162,63.2217244 11.9916413,63.3783454 C11.9916413,63.3783454 14.4185943,64.2180271 19,62.5 C23,61 15.5,4 8.42249651,5.59813056 C4.66354125,6.44691874 2.46945193,6.71282403 2.46945193,6.71282403 Z" id="Path-68" fill="#A05041"></path>
                <path d="M2.41677289,6.51389074 C0.805883706,6.87311372 -0.0278724339,8.42700675 0.540254755,9.98228373 C0.540254755,9.98228373 8.12015218,29.7291432 9.01795104,41.5202241 C9.9157499,53.311305 9.21892315,60.0239297 9.21892315,60.0239297 C9.10792931,61.6675679 10.3556263,62.8735462 11.9989969,62.7361178 C11.9989969,62.7361178 12.8171183,62.6170489 14.2769689,62.6170489 C23,62.6170489 9.96905738,6.18918412 4.91303612,6.18918412 C3.32303,6.18918412 2.41677289,6.51389074 2.41677289,6.51389074 Z" id="Path-68" fill="#CFAE98"></path>
            </g>
            <path d="M250,352 L250,373.5" id="Path-70" stroke="#927960" stroke-width="5" stroke-linecap="round"></path>
            <polyline id="Path-71" stroke="#C9AE85" stroke-width="3" stroke-linecap="round" points="11.5 206.5 11.5 340.01498 2.5 340.5"></polyline>
            <polyline id="Path-71" stroke="#C9AE85" stroke-width="3" stroke-linecap="round" transform="translate(491.000000, 273.500000) scale(-1, 1) translate(-491.000000, -273.500000) " points="495.5 206.5 495.5 340.01498 486.5 340.5"></polyline>
            <path d="M40.5,177.375 L144,177.75" id="Path-72" stroke="#4A3B30" stroke-width="2" stroke-linecap="round"></path>
            <path d="M57.5,151.5 L112,138.5 C112,138.5 112.564583,143.358398 101,145 C89.4354165,146.641602 81.0564992,143.347879 70,145 C58.9435008,146.652121 57.5,151.5 57.5,151.5 Z M85.5004298,287.387231 C85.5004298,287.387231 106.900425,286.5 134.161781,286.5 C161.423138,286.5 189.061236,281.773444 189.061236,281.773444 C191.785586,281.356633 194.365025,283.210762 194.815307,285.937875 C194.815307,285.937875 198.087341,302.001278 194,306 C191.54154,308.405158 183.416499,308.397429 179,308.5 C174.583501,308.602571 169.804063,309.140531 165.5,309.323622 C136.313786,310.565177 88.4825787,314.007599 88.4825787,314.007599 C84.6302301,314.277795 82.0947741,311.429264 82.8284652,307.641318 C82.8284652,307.641318 83.5,305.576369 83.5,301.5 C83.5,297.423631 82.783885,290.494295 82.783885,290.494295 C82.6307325,288.844748 83.8433382,287.449512 85.5004298,287.387231 Z" id="Path-73" fill-opacity="0.387567935" fill="#5D6A67"></path>
            <path d="M296.298368,287.387231 C294.641276,287.449512 293.428671,288.844748 293.581823,290.494295 C293.581823,290.494295 294.297938,297.423631 294.297938,301.5 C294.297938,305.576369 293.626403,307.641318 293.626403,307.641318 C292.892712,311.429264 295.428168,314.277795 299.280517,314.007599 C299.280517,314.007599 347.111725,310.565177 376.297938,309.323622 C380.602001,309.140531 385.381439,308.602571 389.797938,308.5 C394.214437,308.397429 402.339478,308.405158 404.797938,306 C408.885279,302.001278 405.613245,285.937875 405.613245,285.937875 C405.162964,283.210762 402.583524,281.356633 399.859174,281.773444 C399.859174,281.773444 372.221076,286.5 344.959719,286.5 C317.698363,286.5 296.298368,287.387231 296.298368,287.387231 Z" id="Path-73" fill-opacity="0.387567935" fill="#5D6A67" transform="translate(350.176494, 297.870138) scale(-1, 1) translate(-350.176494, -297.870138) "></path>
            <path d="M71,146 L71,159.5" id="Path-74" stroke="#4A3B30" stroke-width="2"></path>
            <path d="M98,146 L98,159.5" id="Path-74" stroke="#4A3B30" stroke-width="2"></path>
            <path d="M409.5,186.5 L109.5,-4" id="Path-75" stroke="#FAF7F7" stroke-width="4"></path>
            <polygon id="Path-65" fill="#453428" points="153 8.8817842e-16 407.798888 157.31901 408.015562 168.363015 132.5 -4.5"></polygon>
            <path d="M404,149.500862 C404,147.56739 405.569726,146 407.503521,146 L433.97267,146 C435.907611,146 437.47619,147.568104 437.47619,149.500862 L437.47619,155.499138 C437.47619,157.43261 435.906465,159 433.97267,159 L407.503521,159 C405.56858,159 404,157.431896 404,155.499138 L404,149.500862 Z" id="Rectangle-36" fill="#FBF8F8"></path>
            <path d="M437.47619,153.537868 L437.47619,156.268934 C437.47619,157.77726 436.245053,159 434.736693,159 L406.739497,159 C405.226515,159 404,157.76738 404,156.264892 L404,153.685464 L437.47619,153.537868 Z" id="Rectangle-36" fill="#E1E1E1"></path>
            <path d="M27.5,2.5 L27.5,342.009205" id="Path-76" stroke="#C8C8C8" stroke-width="3"></path>
            <path d="M470.5,2.5 L470.5,342.009205" id="Path-76" stroke="#C8C8C8" stroke-width="3"></path>
            <path d="M134.5,239 C134.5,239 214,247 225.5,260.5" id="Path-94" stroke="#EEDFD1" stroke-width="3"></path>
            <path d="M273.5,239 C273.5,239 353,247 364.5,260.5" id="Path-94" stroke="#EEDFD1" stroke-width="3" transform="translate(319.000000, 249.750000) scale(-1, 1) translate(-319.000000, -249.750000) "></path>
        </g>
    </g>
</svg>