<?xml version="1.0" encoding="UTF-8"?>
<svg width="500px" height="400px" viewBox="0 0 500 400" version="1.1" xmlns="http://www.w3.org/2000/svg" xmlns:xlink="http://www.w3.org/1999/xlink">
    <!-- Generator: Sketch 43.1 (39012) - http://www.bohemiancoding.com/sketch -->
    <title>The Simpsons</title>
    <desc>Created with Sketch.</desc>
    <defs>
        <path d="M45,260.5 L45,177.998964 C45,173.574878 41.4163121,170 36.995609,170 L-32,170 L-32,268 L30,268 L30,278.00351 C30,279.649502 31.3428872,281 32.9994225,281 L42.0005775,281 C43.6556493,281 45,279.658426 45,278.00351 L45,260.5 Z" id="path-1"></path>
        <path d="M-25.6215465,199.631162 C-25.6215465,197.968997 -24.2797854,196.621546 -22.6179827,196.621546 L16.6179827,196.621546 C18.2768052,196.621546 19.6215465,197.964587 19.6215465,199.631162 L19.6215465,261.611931 C19.6215465,263.274096 18.2797854,264.621546 16.6179827,264.621546 L-22.6179827,264.621546 C-24.2768052,264.621546 -25.6215465,263.278506 -25.6215465,261.611931 L-25.6215465,199.631162 Z" id="path-2"></path>
        <path d="M-8.62154648,165.631162 C-8.62154648,163.968997 -7.26882366,162.621546 -5.62818922,162.621546 L3.62818922,162.621546 C5.28137478,162.621546 6.62154648,163.964587 6.62154648,165.631162 L6.62154648,227.611931 C6.62154648,229.274096 5.26882366,230.621546 3.62818922,230.621546 L-5.62818922,230.621546 C-7.28137478,230.621546 -8.62154648,229.278506 -8.62154648,227.611931 L-8.62154648,165.631162 Z" id="path-3"></path>
        <path d="M-10.6215465,184.631162 C-10.6215465,182.968997 -9.26882366,181.621546 -7.62818922,181.621546 L1.62818922,181.621546 C3.28137478,181.621546 4.62154648,182.964587 4.62154648,184.631162 L4.62154648,246.611931 C4.62154648,248.274096 3.26882366,249.621546 1.62818922,249.621546 L-7.62818922,249.621546 C-9.28137478,249.621546 -10.6215465,248.278506 -10.6215465,246.611931 L-10.6215465,184.631162 Z" id="path-4"></path>
        <rect id="path-5" x="177.012105" y="-2.62549205" width="143" height="91" rx="4"></rect>
        <rect id="path-6" x="169" y="364" width="151" height="25"></rect>
        <path d="M488,57 L502,57 L502,255 C502,255 497.7501,257 494.5,257 C491.2499,257 488,255 488,255 L488,57 Z" id="path-7"></path>
        <path d="M-38,173.997152 C-38,172.341871 -36.6641634,171 -34.9921875,171 L28.9921875,171 C30.6533565,171 32,172.341623 32,173.997152 L32,180.002848 C32,181.658129 30.6641634,183 28.9921875,183 L-34.9921875,183 C-36.6533565,183 -38,181.658377 -38,180.002848 L-38,173.997152 Z" id="path-8"></path>
        <path d="M410.009316,35.9575397 C410.295162,34.3241356 411.864265,33 413.523418,33 L457.530353,33 C459.185293,33 460.659973,34.3308716 460.8259,35.9901426 L464.227872,70.0098574 C464.393013,71.6612675 463.191078,73 461.526992,73 L453.808594,73 L449,71 L444.285156,73 L439,71 L434.15625,73 L429,71 L424.861328,73 L419.5,71 L415.003906,73 L406.527347,73 C404.870238,73 403.759788,71.6691284 404.044455,70.0424603 L410.009316,35.9575397 Z" id="path-9"></path>
        <path d="M2.84217094e-14,53.9901214 C2.84217094e-14,24.1722007 24.1749138,0 54.0043242,0 L356.664086,0 C386.489851,0 410.668411,24.1745029 410.668411,53.9901214 L410.668411,162.534417 C410.668411,170.820238 403.946483,177.537223 395.672624,177.537223 L22.0066713,177.537223 C9.85272234,177.537223 2.84217094e-14,167.691424 2.84217094e-14,155.545006 L2.84217094e-14,53.9901214 Z" id="path-10"></path>
        <path d="M356.347192,57.4648548 C356.347192,42.4683237 368.504113,30.3112333 383.507802,30.3112333 L383.507802,30.3112333 C398.508192,30.3112333 410.668411,42.468923 410.668411,57.4648548 L410.668411,162.541836 C410.668411,170.82356 403.953081,177.537223 395.663101,177.537223 L356.347192,177.537223 L356.347192,57.4648548 Z" id="path-11"></path>
        <path d="M0,57.4648548 C0,42.4683237 12.1569208,30.3112333 27.1606092,30.3112333 L27.1606092,30.3112333 C42.1609994,30.3112333 54.3212183,42.468923 54.3212183,57.4648548 L54.3212183,177.537223 L15.0053095,177.537223 C6.71810588,177.537223 0,170.828659 0,162.541836 L0,57.4648548 Z" id="path-12"></path>
        <path d="M90.4122358,75.0522631 C90.4122358,66.9513745 96.976973,60.3843068 105.078965,60.3843068 L105.078965,60.3843068 C113.179176,60.3843068 119.745694,66.9432931 119.745694,75.0522631 L119.745694,146.869266 C119.745694,154.970155 113.180957,161.537222 105.078965,161.537222 L105.078965,161.537222 C96.978754,161.537222 90.4122358,154.978236 90.4122358,146.869266 L90.4122358,75.0522631 Z" id="path-13"></path>
        <path d="M191.449702,75.0522631 C191.449702,66.9513745 198.014439,60.3843068 206.116431,60.3843068 L206.116431,60.3843068 C214.216642,60.3843068 220.78316,66.9432931 220.78316,75.0522631 L220.78316,146.869266 C220.78316,154.970155 214.218423,161.537222 206.116431,161.537222 L206.116431,161.537222 C198.01622,161.537222 191.449702,154.978236 191.449702,146.869266 L191.449702,75.0522631 Z" id="path-14"></path>
        <path d="M291.400744,76.1348071 C291.400744,68.0339186 297.965481,61.4668509 306.067473,61.4668509 L306.067473,61.4668509 C314.167683,61.4668509 320.734202,68.0258371 320.734202,76.1348071 L320.734202,147.95181 C320.734202,156.052699 314.169464,162.619766 306.067473,162.619766 L306.067473,162.619766 C297.967262,162.619766 291.400744,156.06078 291.400744,147.95181 L291.400744,76.1348071 Z" id="path-15"></path>
        <rect id="path-16" x="-9" y="139" width="23" height="37" rx="3"></rect>
        <path d="M-7,144.99254 C-7,143.339806 -5.65015373,142 -3.99631877,142 L31.9963188,142 C33.6552061,142 35,143.352926 35,144.99254 L35,157.00746 C35,158.660194 33.6501537,160 31.9963188,160 L-3.99631877,160 C-5.65520611,160 -7,158.647074 -7,157.00746 L-7,144.99254 Z" id="path-17"></path>
        <path d="M-1,154.99649 C-1,153.341574 0.347318571,152 2.00001915,152 L25.9999809,152 C27.6568457,152 29,153.350498 29,154.99649 L29,177.00351 C29,178.658426 27.6526814,180 25.9999809,180 L2.00001915,180 C0.343154324,180 -1,178.649502 -1,177.00351 L-1,154.99649 Z" id="path-18"></path>
        <polygon id="path-19" points="8 160 20 160 20 173 8 173"></polygon>
        <path d="M-19.3571429,93.9976599 C-19.3571429,92.342098 -18.0176387,91 -16.3562047,91 L3.34748213,91 C7.7710956,91 12.8613629,94.2398586 14.727567,98.2593751 L25.6295759,121.740625 C27.4910097,125.749867 25.4245457,129 21.0012431,129 L-16.3504577,129 C-18.0110041,129 -19.3571429,127.64756 -19.3571429,126.00234 L-19.3571429,93.9976599 Z" id="path-20"></path>
    </defs>
    <g id="Page-1" stroke="none" stroke-width="1" fill="none" fill-rule="evenodd">
        <g id="The-Simpsons">
            <rect id="Rectangle-10-Copy-8" fill="#F1CACA" x="-58" y="-59" width="602" height="310"></rect>
            <rect id="Rectangle-10-Copy" fill="#4CA096" x="-68.8615983" y="236" width="633.371797" height="145"></rect>
            <polygon id="Rectangle-10-Copy-9" fill="#4CA096" points="-73.5101986 251 559.861598 251 559.861598 454 -73.5101986 454"></polygon>
            <g id="Combined-Shape">
                <use fill="#88549A" fill-rule="evenodd" xlink:href="#path-1"></use>
                <path stroke="#633872" stroke-width="6" d="M33.0004798,278 L33,278 C32.9996348,278 32.9998268,277.999991 33,277.999974 C33.0023545,277.999744 33.0012312,277.998131 33.0004828,278 C33.0002179,278.000662 33,278.001759 33,278.00351 L33,278 L33,277.999974 L33,268 L33,265 L30,265 L-29,265 L-29,173 L36.995609,173 C39.762489,173 42,175.234762 42,177.998964 L42,260.5 L42,278 L33.0004828,278 L33.0004798,278 Z"></path>
            </g>
            <g id="Rectangle-Copy-2" transform="translate(-3.000000, 230.621546) rotate(90.000000) translate(3.000000, -230.621546) ">
                <use fill="#684A73" fill-rule="evenodd" xlink:href="#path-2"></use>
                <path stroke="#633872" stroke-width="4" d="M-23.6215465,199.631162 C-23.6215465,199.071328 -23.1729766,198.621546 -22.6179827,198.621546 L16.6179827,198.621546 C17.1733095,198.621546 17.6215465,199.070232 17.6215465,199.631162 L17.6215465,261.611931 C17.6215465,262.171765 17.1729766,262.621546 16.6179827,262.621546 L-22.6179827,262.621546 C-23.1733095,262.621546 -23.6215465,262.172861 -23.6215465,261.611931 L-23.6215465,199.631162 Z"></path>
            </g>
            <g id="Rectangle-Copy-3" transform="translate(-1.000000, 196.621546) rotate(90.000000) translate(1.000000, -196.621546) ">
                <use fill="#88549A" fill-rule="evenodd" xlink:href="#path-3"></use>
                <path stroke="#633872" stroke-width="4" d="M-6.62154648,165.631162 C-6.62154648,165.076784 -6.16745702,164.621546 -5.62818922,164.621546 L3.62818922,164.621546 C4.1763454,164.621546 4.62154648,165.068713 4.62154648,165.631162 L4.62154648,227.611931 C4.62154648,228.166309 4.16745702,228.621546 3.62818922,228.621546 L-5.62818922,228.621546 C-6.1763454,228.621546 -6.62154648,228.17438 -6.62154648,227.611931 L-6.62154648,165.631162 Z"></path>
            </g>
            <g id="Rectangle-Copy-4" transform="translate(-3.000000, 215.621546) rotate(90.000000) translate(3.000000, -215.621546) ">
                <use fill="#1F6C9A" fill-rule="evenodd" xlink:href="#path-4"></use>
                <path stroke="#67B2DE" stroke-width="4" d="M-8.62154648,184.631162 C-8.62154648,184.076784 -8.16745702,183.621546 -7.62818922,183.621546 L1.62818922,183.621546 C2.1763454,183.621546 2.62154648,184.068713 2.62154648,184.631162 L2.62154648,246.611931 C2.62154648,247.166309 2.16745702,247.621546 1.62818922,247.621546 L-7.62818922,247.621546 C-8.1763454,247.621546 -8.62154648,247.17438 -8.62154648,246.611931 L-8.62154648,184.631162 Z"></path>
            </g>
            <ellipse id="Oval-11-Copy-2" stroke="#643D57" stroke-width="6" fill="#8B4D84" cx="496" cy="256.5" rx="31" ry="9.5"></ellipse>
            <path d="M251.793501,-22.1428497 C252.806229,-23.4600806 254.390756,-23.4267789 255.340486,-22.0571553 L283.309394,18.2773154 L219.295111,20.1270545 L251.793501,-22.1428497 Z" id="Triangle" stroke="#979797" stroke-width="6" transform="translate(251.302252, -1.490506) rotate(12.000000) translate(-251.302252, 1.490506) "></path>
            <g id="Rectangle-11" transform="translate(248.512105, 42.874508) rotate(7.000000) translate(-248.512105, -42.874508) ">
                <use fill="#A0CDCD" fill-rule="evenodd" xlink:href="#path-5"></use>
                <rect stroke="#BF8D77" stroke-width="6" x="180.012105" y="0.374507953" width="137" height="85" rx="4"></rect>
            </g>
            <polygon id="Rectangle-11-Copy" fill="#96AECF" transform="translate(245.086671, 70.010642) rotate(7.000000) translate(-245.086671, -70.010642) " points="179.535282 57.8984221 310.63806 58.9286921 310.463417 82.1228616 179.97878 82.0242031"></polygon>
            <ellipse id="Oval-10" stroke="#834659" stroke-width="6" fill="#AE7485" cx="244" cy="388.5" rx="189" ry="63.5"></ellipse>
            <ellipse id="Oval-10-Copy-2" stroke="#8F5897" stroke-width="6" fill="#9F67A7" cx="244" cy="389" rx="140" ry="47"></ellipse>
            <path d="M422.403846,452.313708 L422.403846,390.313708 L243.701923,390.313708 C145.007576,390.313708 65,382.857864 65,390.313708 L65,452.313708 L422.403846,452.313708 Z" id="Oval-10-Copy" stroke="#8F5797" stroke-width="6" fill="#95679C"></path>
            <g id="Rectangle-3">
                <use fill="#817C7C" fill-rule="evenodd" xlink:href="#path-6"></use>
                <rect stroke="#5A5656" stroke-width="5" x="171.5" y="366.5" width="146" height="20"></rect>
            </g>
            <g id="Rectangle-12-Copy" transform="translate(495.000000, 157.000000) scale(-1, 1) translate(-495.000000, -157.000000) ">
                <use fill="#8B4D84" fill-rule="evenodd" xlink:href="#path-7"></use>
                <path stroke="#643D57" stroke-width="6" d="M491,60 L499,60 L499,252.984725 C498.836496,253.04418 498.670299,253.102755 498.501989,253.160053 C497.584681,253.47233 496.699479,253.713791 495.900146,253.857071 C495.370707,253.951973 494.897875,254 494.5,254 C493.525371,254 492.362366,253.713723 491.169891,253.224498 C491.112735,253.201049 491.056093,253.177375 491,253.153508 L491,60 Z"></path>
            </g>
            <g id="Rectangle-12-Copy-4">
                <use fill="#A886B4" fill-rule="evenodd" xlink:href="#path-8"></use>
                <path stroke="#633872" stroke-width="5" d="M-35.5,173.997152 C-35.5,173.719451 -35.2803151,173.5 -34.9921875,173.5 L28.9921875,173.5 C29.2747455,173.5 29.5,173.724443 29.5,173.997152 L29.5,180.002848 C29.5,180.280549 29.2803151,180.5 28.9921875,180.5 L-34.9921875,180.5 C-35.2747455,180.5 -35.5,180.275557 -35.5,180.002848 L-35.5,173.997152 Z"></path>
            </g>
            <path d="M490,57 L499,57 L499,47.5067841 C499,44.5259455 496.627186,42.0642778 493.639685,41.9709184 L483,41.6384283 C483,39.804201 483,38.9902886 483,34.5 C483,28.8228374 482.244687,23.8088448 479.693167,18.82448 C475.724264,11.0712738 468.335351,6.5 457.5,6.5 C448.63773,6.5 442.298273,10.4185641 438.69337,17.3645971 C436.029418,22.4975782 435,28.825967 435,36.5 L444,36.5 C444,22.5678953 447.668148,15.5 457.5,15.5 C464.938894,15.5 469.244138,18.1635106 471.681833,22.92552 C473.428383,26.3373846 474,30.1319499 474,34.5 L474,44.000064 C474,47.5327674 476.822196,50.4497654 480.353504,50.5601187 L490,50.8615717 L490,57 Z" id="Path-11" stroke="#305B84" stroke-width="5" fill="#838DB5" fill-rule="nonzero"></path>
            <g id="Rectangle-13" transform="translate(434.121492, 53.000000) rotate(18.000000) translate(-434.121492, -53.000000) ">
                <use fill="#B74F3B" fill-rule="evenodd" xlink:href="#path-9"></use>
                <path stroke="#963E3E" stroke-width="6" d="M461.211923,70 L454.407604,70 L450.152088,68.2300375 L448.988563,67.7461016 L447.828468,68.2382048 L444.221447,69.7682749 L440.061774,68.1941783 L438.951906,67.7741838 L437.855052,68.2270785 L434.121405,69.7687134 L430.084884,68.2030327 L428.868954,67.7313991 L427.694683,68.2988616 L424.709528,69.7414286 L420.548543,68.1892071 L419.400376,67.7608926 L418.280701,68.2589583 L414.366758,70 L407.097477,70 L412.964408,36.4746807 L412.964408,36.4746807 C412.999559,36.2738162 413.324634,36 413.523418,36 L457.530353,36 C457.646163,36 457.828434,36.1651061 457.840789,36.2886538 L461.211923,70 Z"></path>
            </g>
            <circle id="Oval-2" stroke="#305B84" stroke-width="5" fill="#838DB5" cx="495" cy="50" r="10"></circle>
            <g id="Group" transform="translate(46.165795, 113.000000)">
                <g id="Rectangle-10-Copy-2">
                    <use fill="#E7AE74" fill-rule="evenodd" xlink:href="#path-10"></use>
                    <path stroke="#A86C2F" stroke-width="6" d="M3,53.9901214 C3,25.8279414 25.8328819,3 54.0043242,3 L356.664086,3 C384.832358,3 407.668411,25.8307189 407.668411,53.9901214 L407.668411,162.534417 C407.668411,169.160655 402.292357,174.537223 395.672624,174.537223 L22.0066713,174.537223 C11.5089699,174.537223 3,166.033963 3,155.545006 L3,53.9901214 Z"></path>
                </g>
                <g id="Rectangle-10-Copy-3">
                    <use fill="#E7AE74" fill-rule="evenodd" xlink:href="#path-11"></use>
                    <path stroke="#A86C2F" stroke-width="6" d="M359.347192,174.537223 L359.347192,57.4648548 C359.347192,44.1241555 370.16199,33.3112333 383.507802,33.3112333 C396.851293,33.3112333 407.668411,44.1257328 407.668411,57.4648548 L407.668411,162.541836 C407.668411,169.167305 402.295626,174.537223 395.663101,174.537223 L359.347192,174.537223 Z"></path>
                </g>
                <g id="Rectangle-10-Copy-4">
                    <use fill="#E7AE74" fill-rule="evenodd" xlink:href="#path-12"></use>
                    <path stroke="#A86C2F" stroke-width="6" d="M51.3212183,174.537223 L15.0053095,174.537223 C8.37259569,174.537223 3,169.169441 3,162.541836 L3,57.4648548 C3,44.1241555 13.8147976,33.3112333 27.1606092,33.3112333 C40.5041007,33.3112333 51.3212183,44.1257328 51.3212183,57.4648548 L51.3212183,174.537223 Z"></path>
                </g>
                <g id="Rectangle-10-Copy-5" transform="translate(105.078965, 110.960765) rotate(90.000000) translate(-105.078965, -110.960765) ">
                    <use fill="#E7AE74" fill-rule="evenodd" xlink:href="#path-13"></use>
                    <path stroke="#A86C2F" stroke-width="6" d="M93.4122358,75.0522631 C93.4122358,68.607501 98.6345549,63.3843068 105.078965,63.3843068 C111.525313,63.3843068 116.745694,68.6031379 116.745694,75.0522631 L116.745694,146.869266 C116.745694,153.314028 111.523375,158.537222 105.078965,158.537222 C98.6326169,158.537222 93.4122358,153.318391 93.4122358,146.869266 L93.4122358,75.0522631 Z"></path>
                </g>
                <g id="Rectangle-10-Copy-6" transform="translate(206.116431, 110.960765) rotate(90.000000) translate(-206.116431, -110.960765) ">
                    <use fill="#E7AE74" fill-rule="evenodd" xlink:href="#path-14"></use>
                    <path stroke="#A86C2F" stroke-width="6" d="M194.449702,75.0522631 C194.449702,68.607501 199.672021,63.3843068 206.116431,63.3843068 C212.562779,63.3843068 217.78316,68.6031379 217.78316,75.0522631 L217.78316,146.869266 C217.78316,153.314028 212.560841,158.537222 206.116431,158.537222 C199.670083,158.537222 194.449702,153.318391 194.449702,146.869266 L194.449702,75.0522631 Z"></path>
                </g>
                <g id="Rectangle-10-Copy-7" transform="translate(306.067473, 112.043309) rotate(90.000000) translate(-306.067473, -112.043309) ">
                    <use fill="#E7AE74" fill-rule="evenodd" xlink:href="#path-15"></use>
                    <path stroke="#A86C2F" stroke-width="6" d="M294.400744,76.1348071 C294.400744,69.6900451 299.623063,64.4668509 306.067473,64.4668509 C312.51382,64.4668509 317.734202,69.6856819 317.734202,76.1348071 L317.734202,147.95181 C317.734202,154.396572 312.511883,159.619766 306.067473,159.619766 C299.621125,159.619766 294.400744,154.400935 294.400744,147.95181 L294.400744,76.1348071 Z"></path>
                </g>
                <path d="M155.901897,88.2273396 L155.901897,14.6143446" id="Line" stroke="#A76C2F" stroke-width="5" stroke-linecap="round"></path>
                <path d="M255.852938,88.2273396 L255.852938,14.6143446" id="Line-Copy" stroke="#A76C2F" stroke-width="5" stroke-linecap="round"></path>
            </g>
            <g id="Rectangle-12">
                <use fill="#872C00" fill-rule="evenodd" xlink:href="#path-16"></use>
                <rect stroke="#5B7F22" stroke-width="5" x="-6.5" y="141.5" width="18" height="32" rx="3"></rect>
            </g>
            <g id="Rectangle-12-Copy-5">
                <use fill="#92CDC5" fill-rule="evenodd" xlink:href="#path-17"></use>
                <path stroke="#589783" stroke-width="5" d="M-4.5,144.99254 C-4.5,144.724991 -4.27390901,144.5 -3.99631877,144.5 L31.9963188,144.5 C32.2703472,144.5 32.5,144.729494 32.5,144.99254 L32.5,157.00746 C32.5,157.275009 32.273909,157.5 31.9963188,157.5 L-3.99631877,157.5 C-4.27034721,157.5 -4.5,157.270506 -4.5,157.00746 L-4.5,144.99254 Z"></path>
            </g>
            <g id="Rectangle-12-Copy-2">
                <use fill="#92CDC5" fill-rule="evenodd" xlink:href="#path-18"></use>
                <path stroke="#589783" stroke-width="5" d="M1.5,154.99649 C1.5,154.724918 1.72539866,154.5 2.00001915,154.5 L25.9999809,154.5 C26.2725629,154.5 26.5,154.727637 26.5,154.99649 L26.5,177.00351 C26.5,177.275082 26.2746013,177.5 25.9999809,177.5 L2.00001915,177.5 C1.72743713,177.5 1.5,177.272363 1.5,177.00351 L1.5,154.99649 Z"></path>
            </g>
            <g id="Rectangle-2">
                <use fill="#BED5D2" fill-rule="evenodd" xlink:href="#path-19"></use>
                <path stroke="#BED5D2" stroke-width="3" d="M9.5,161.5 L18.5,161.5 L18.5,171.5 L9.5,171.5 L9.5,161.5 Z"></path>
            </g>
            <g id="Rectangle-12-Copy-3">
                <use fill="#936398" fill-rule="evenodd" xlink:href="#path-20"></use>
                <path stroke="#8B4292" stroke-width="5" d="M-16.8571429,93.9976599 C-16.8571429,93.7214956 -16.6356123,93.5 -16.3562047,93.5 L3.34748213,93.5 C6.80247157,93.5 11.0054904,96.1792673 12.4600446,99.3121533 L23.3620534,122.793403 C24.4554644,125.148442 23.5944911,126.5 21.0012431,126.5 L-16.3504577,126.5 C-16.6270683,126.5 -16.8571429,126.270069 -16.8571429,126.00234 L-16.8571429,93.9976599 Z"></path>
            </g>
            <polygon id="Path-10" fill="#FF7979" points="220 34.5 278 42.5 259.5 60 231.5 56.5"></polygon>
            <polygon id="Path-13" fill="#D8D8D8" points="250.5 15 248 36 234 34.5"></polygon>
            <polygon id="Path-13-Copy" fill="#D8D8D8" transform="translate(259.951994, 25.985827) scale(-1, 1) rotate(-14.000000) translate(-259.951994, -25.985827) " points="270.46966 13.3646284 266.262593 38.607026 249.434328 36.8039976"></polygon>
            <polyline id="Path-14" stroke="#5B5656" stroke-width="4" points="255.637717 366.467807 219.949908 351.501006 235.983561 330.341046 199.778538 313.309859 199.778538 279.763581"></polyline>
            <path d="M252.534429,367.5 L288.222238,352.533199 L288.222238,330.857143 L315.634613,322.083501 C315.634613,322.083501 311.963324,303.775768 315.634613,296.278672 C319.305903,288.781576 350.805208,279.763581 350.805208,279.763581" id="Path-14-Copy" stroke="#5B5656" stroke-width="4"></path>
            <ellipse id="Oval-11" stroke="#5B5656" fill="#5B5656" cx="200.295752" cy="276.086519" rx="7.24100472" ry="7.22535211"></ellipse>
            <ellipse id="Oval-11-Copy" stroke="#5B5656" fill="#5B5656" cx="353.391281" cy="276.086519" rx="7.24100472" ry="7.22535211"></ellipse>
        </g>
    </g>
</svg>